<?xml version="1.0" standalone="no"?>
<!DOCTYPE svg PUBLIC "-//W3C//DTD SVG 1.1//EN" "http://www.w3.org/Graphics/SVG/1.1/DTD/svg11.dtd" >
<svg xmlns="http://www.w3.org/2000/svg">
<metadata></metadata>
<defs>
<font id="natural_scriptregular" horiz-adv-x="1116" >
<font-face units-per-em="2048" ascent="1638" descent="-410" />
<missing-glyph horiz-adv-x="532" />
<glyph horiz-adv-x="2048" />
<glyph horiz-adv-x="2048" />
<glyph unicode="&#xd;" horiz-adv-x="532" />
<glyph unicode=" "  horiz-adv-x="532" />
<glyph unicode="&#x09;" horiz-adv-x="532" />
<glyph unicode="&#xa0;" horiz-adv-x="532" />
<glyph unicode="!" horiz-adv-x="1005" d="M203 33q0 29 17.5 55.5t45.5 26.5q20 0 33.5 -14.5t13.5 -37.5q0 -33 -19.5 -53t-43.5 -20q-16 0 -29.5 10t-17.5 33zM328 322q0 14 2 18q53 117 118.5 244t129.5 270q33 76 67.5 153.5t62 140t44 103.5t14.5 45v-2q0 16 12.5 27.5t28.5 11.5t27.5 -11t11.5 -28 q0 -4 -1 -10t-6 -23.5t-17.5 -49t-33.5 -85.5l-387 -825q-12 -20 -34 -20q-20 0 -29.5 13t-9.5 28z" />
<glyph unicode="&#x22;" horiz-adv-x="819" d="M406 815q0 12 5 38t11 55.5t11 60t5 55.5v11t-4 42q0 31 13.5 53.5t44.5 22.5q29 0 39 -20.5t10 -67.5q0 -33 -13.5 -80t-32 -91t-39 -75t-34.5 -31q-16 0 -16 27zM610 815q0 12 5.5 38t11.5 55.5t11 60t5 55.5v11t-4 42q0 31 13 53.5t44 22.5q29 0 39 -20.5t10 -67.5 q0 -33 -13 -80t-31.5 -91t-39 -75t-34.5 -31q-16 0 -17 27z" />
<glyph unicode="#" horiz-adv-x="1275" d="M0 389q0 16 13.5 30.5t23.5 14.5q59 6 123.5 12.5t132.5 14.5q33 68 62.5 136.5t62.5 141.5l-240 -28q-18 0 -30.5 10t-12.5 27q0 16 14.5 30.5t24.5 14.5q63 6 135 14t150 16q51 117 78.5 184.5t43 101.5t22.5 43t20 9q16 0 28.5 -12t12.5 -29q0 -4 -1 -10t-6.5 -23.5 t-17.5 -48t-35 -86.5l-51 -116q98 12 197.5 23t191.5 28q33 66 51.5 117t31.5 85.5t25.5 53t30.5 18.5q16 0 27.5 -12t11.5 -29q0 -4 -1 -10t-6 -23.5t-17.5 -48t-32.5 -86.5l-27 -53q72 10 110 17.5t55.5 12.5t21.5 7t10 2q16 0 29.5 -12.5t13.5 -28.5q0 -20 -19 -35 q-4 -2 -11 -4t-23.5 -6t-49 -11t-90.5 -18l-88 -10l-129 -278q82 12 127 20t67.5 13t28 7.5t9.5 2.5q16 0 28.5 -11.5t12.5 -27.5q0 -23 -19 -35q-4 -2 -10 -4l-22.5 -7.5t-49 -11.5t-90.5 -18l-123 -17l-149 -319q-14 -20 -35 -21q-20 0 -29.5 14.5t-9.5 29.5v9t2 9 q31 61 64.5 129t68.5 139l-399 -47l-119 -262q-14 -20 -35 -21q-20 0 -30.5 14.5t-10.5 29.5v9t4 9q23 49 48.5 101.5t54.5 109.5l-207 -27q-18 0 -30.5 10.5t-12.5 26.5zM379 471q96 12 199.5 24.5t201.5 26.5q18 39 36 79t36 81q25 57 53 119l-397 -49z" />
<glyph unicode="$" horiz-adv-x="905" d="M0 96q0 18 12.5 28.5t28.5 10.5q4 0 8 -3t17.5 -7t43 -7t85.5 -3h33.5t31.5 2q43 88 89 191.5t93 207.5q-51 47 -88 92t-37 99q0 90 82 155q16 14 44 30.5t60 31t65.5 23.5t62.5 9q20 49 31.5 81t13.5 42v-4q4 14 15 25.5t28 11.5q16 -2 26.5 -12t10.5 -27q0 -6 -4 -23.5 t-31 -82.5q45 -1 70 -9q14 -4 24 -14t10 -24q0 -16 -12 -27.5t-27 -11.5q-12 0 -26.5 3t-30.5 3h-20.5t-22.5 -2q-29 -72 -64.5 -159t-80.5 -185q33 -29 64.5 -58.5t56 -61.5t40 -69t15.5 -76q0 -31 -15.5 -66.5t-58.5 -69.5t-123 -60.5t-209 -38.5q-16 -35 -31.5 -71 t-31 -64.5t-29.5 -46t-26 -17.5q-18 0 -30.5 12.5t-12.5 28.5q0 8 7 24.5t18 37t23.5 44t22.5 46.5q-96 0 -143 10t-53 14q-12 4 -18.5 14.5t-6.5 22.5zM352 125q47 6 87 14.5t75 22.5q20 6 42 17t40 25.5t29.5 32t11.5 39.5q0 47 -39 95.5t-92 91.5q-35 -84 -76 -171 t-78 -167zM397 707q0 -25 22.5 -54.5t57.5 -58.5q68 152 117 274q-37 -10 -73 -26.5t-63.5 -37t-44 -44.5t-16.5 -53z" />
<glyph unicode="%" horiz-adv-x="1417" d="M160 596q0 61 21.5 121.5t57 110t81 83t94.5 41.5h18q25 0 55 -12q18 -6 39 -12t47 -6q45 0 92.5 8t90.5 21.5t79.5 29.5t61.5 33q14 12 29 12q31 0 30 -39q0 -4 -1 -11t-7 -23.5t-18 -47.5t-33 -82l-248 -524l17 12q49 43 109.5 80t121.5 64.5t121.5 43t109.5 15.5 q14 0 36 -4t43.5 -20.5t37 -50t15.5 -93.5q0 -57 -26 -119.5t-67 -114t-91 -85t-97 -33.5q-55 0 -88 41t-33 117q0 61 23.5 124.5t60.5 122.5q-135 -55 -244.5 -153.5t-175.5 -216.5l-35 -74q-10 -18 -28 -18t-26.5 12t-8.5 24q0 10 2 17q33 63 62.5 127.5t58.5 124.5 q84 174 159.5 336.5t147.5 336.5q-63 -27 -138 -44t-143 -17h-20q6 -23 6 -63q0 -57 -25.5 -120t-66.5 -114t-90 -84t-94 -33q-57 0 -90 40t-33 116zM229 596q0 -88 54 -88q35 0 71.5 26.5t66.5 67.5t49 91.5t19 97.5q0 53 -13 66t-30 20q-4 2 -9 4t-11 6q-41 -4 -76 -31 t-62.5 -66.5t-43 -91t-15.5 -102.5zM926 152q0 -41 15 -65t38 -24q37 0 74 27t67.5 68t50 91t19.5 97q0 66 -20.5 81t-34.5 15q-41 0 -79 -25.5t-66.5 -66.5t-46 -93t-17.5 -105z" />
<glyph unicode="&#x26;" horiz-adv-x="1138" d="M152 240q0 68 26.5 125t78.5 112t126 109.5t170 115.5q6 6 8 7q-10 66 -16 125t-6 108q-1 193 114 285q76 66 197 65q92 0 150.5 -49t58.5 -127q0 -104 -108.5 -212.5t-301.5 -231.5q25 -111 58.5 -232t74.5 -243q72 37 123 61.5t83 41.5t49.5 31.5t21.5 28.5q-2 4 -2 15 q0 14 10 27.5t31 13.5q16 0 28.5 -13.5t12.5 -42.5q0 -41 -40 -77.5t-94.5 -67.5t-109.5 -54.5t-86 -37.5q18 -51 37.5 -100.5t38.5 -96.5q4 -12 4 -14q0 -16 -11.5 -27.5t-27.5 -11.5t-32.5 24.5t-32 59.5t-28 73t-22.5 64q-92 -31 -175 -49t-144 -18q-84 0 -135.5 21.5 t-80 54t-38.5 69.5t-10 68zM231 238q0 -59 49.5 -93.5t135.5 -38.5q53 0 130 17.5t163 46.5q-39 115 -73 230.5t-58 226.5q-84 -55 -148.5 -104.5t-109 -95.5t-67 -92t-22.5 -97zM618 942q0 -41 3.5 -87t11.5 -99q66 43 128 88t110.5 91t78 92t29.5 89q0 41 -34 68.5 t-95 27.5q-106 0 -169 -66.5t-63 -203.5z" />
<glyph unicode="'" horiz-adv-x="604" d="M399 815q0 12 5.5 38t11.5 55.5t11 60t5 55.5v11t-4 42q0 31 13 53.5t44 22.5q29 0 39.5 -20.5t10.5 -67.5q0 -33 -13.5 -80t-32 -91t-39 -75t-34.5 -31q-16 0 -17 27z" />
<glyph unicode="(" horiz-adv-x="778" d="M80 573q0 190 73.5 347t193.5 280t270.5 214.5t304.5 154.5q4 2 12 2q20 0 31.5 -11.5t11.5 -27.5q0 -25 -29 -41q-143 -57 -284.5 -141t-253 -198t-181 -257t-69.5 -322q0 -147 45 -288.5t117 -270.5q37 -66 77.5 -128t94.5 -115q6 -12 6 -25q0 -16 -11.5 -26.5 t-27.5 -10.5q-20 0 -47 26.5t-54.5 65.5t-52 80t-41.5 72q-6 6 -10 18q-80 137 -128 291t-48 311z" />
<glyph unicode=")" horiz-adv-x="823" d="M-154 -254q0 25 29 41q143 57 283.5 141t253 198t182.5 258t70 323q0 145 -45.5 287.5t-116.5 271.5q-37 63 -78 125.5t-92 115.5q-8 10 -8 25q0 16 11 26.5t27 10.5q20 0 48 -26.5t55 -65.5t51.5 -80t40.5 -72q6 -6 10 -18q80 -137 128 -291t48 -309 q0 -193 -73.5 -348.5t-192.5 -279.5t-270 -215.5t-305 -154.5q-4 -2 -13 -2q-20 0 -31.5 11.5t-11.5 27.5z" />
<glyph unicode="*" horiz-adv-x="1048" d="M266 940q0 18 15.5 31.5t41 25t60.5 21.5t72 22l-168 76q-20 14 -21 35q0 20 14.5 29.5t28.5 9.5q20 0 68.5 -25.5t103.5 -52.5l-63 174v10q0 20 13 30.5t24 10.5q20 0 32.5 -17t23.5 -47t21.5 -67t26.5 -73q41 104 57.5 152t47.5 48q16 0 27 -11t11 -28q0 -4 -5 -20.5 t-12 -41t-17.5 -52t-22.5 -54.5l-8 -14q80 31 119 52.5t57 21.5q14 0 25.5 -10.5t11.5 -28.5q0 -23 -36 -45.5t-134 -61.5l-16 -4q49 -23 83.5 -34t57 -19t34 -17.5t11.5 -25.5t-12.5 -28.5t-28.5 -12.5q-4 0 -10 1t-23.5 6t-48.5 17.5t-86 34.5l-14 7q31 -78 52 -118 t21 -56q0 -14 -10 -25.5t-26 -11.5q-20 0 -31 10q-2 2 -6 8t-11.5 21.5t-21.5 46t-37 84.5l-4 2l-66 -154q-14 -20 -34 -20t-29.5 13t-9.5 28q0 25 25.5 73.5t47.5 102.5l-170 -66h-10q-20 0 -30.5 12.5t-10.5 24.5z" />
<glyph unicode="+" horiz-adv-x="1009" d="M160 317q0 20 20 35q4 2 74 29t217 55l10 23q49 106 84 189t39 104q6 16 15.5 26t25.5 10t27.5 -12t11.5 -28v-9q0 -4 -1 -13t-7 -27.5t-17.5 -47t-31.5 -71.5l-60 -127q66 10 117 16t121 12q39 0 45 -35q0 -16 -8 -28t-27 -17q-86 -10 -157.5 -19t-133.5 -20l-153 -337 q-4 -10 -14.5 -16.5t-20.5 -6.5q-20 0 -30.5 14.5t-10.5 28.5t4 18l129 281q-100 -20 -153.5 -40.5t-55.5 -22.5q-6 -4 -16 -5q-14 0 -28.5 11.5t-14.5 29.5z" />
<glyph unicode="," horiz-adv-x="585" d="M121 -176q0 8 21.5 24.5t47 41t47 58.5t21.5 81v11t-2 42q0 31 14 53.5t43 22.5t44.5 -20.5t15.5 -67.5q0 -55 -31 -103.5t-71 -84.5t-77.5 -55.5t-52.5 -19.5q-14 0 -17 5.5t-3 11.5z" />
<glyph unicode="-" d="M266 291q0 20 21 35q2 0 25.5 10t70.5 25.5t118.5 33t170.5 31.5q66 10 118 16.5t121 12.5q39 0 45 -35q0 -16 -8 -28.5t-26 -16.5q-88 -10 -165 -20.5t-143 -20.5q-135 -23 -209.5 -50.5t-78.5 -29.5q-6 -4 -17 -4q-14 0 -28.5 11t-14.5 30z" />
<glyph unicode="." horiz-adv-x="479" d="M121 45q0 41 21.5 74t60.5 33q27 0 45 -18.5t18 -47.5q0 -41 -26.5 -68.5t-59.5 -27.5q-23 0 -39 13t-20 42z" />
<glyph unicode="/" horiz-adv-x="995" d="M201 -73q0 5 2 10q45 94 99 209.5t112.5 240.5t118 256t116 254t104.5 232.5t83 195.5q6 16 15 27.5t26 11.5q16 0 27 -12.5t11 -28.5q0 -4 -1 -10t-6 -23.5t-17 -49.5t-33 -85l-584 -1259q-14 -20 -34 -21q-20 0 -29.5 14.5t-9.5 28.5v9z" />
<glyph unicode="0" horiz-adv-x="886" d="M106 287q0 139 61 277.5t159 236.5q70 72 146.5 108.5t150.5 36.5q57 0 105 -23.5t83 -67.5t55.5 -105.5t20.5 -135.5q0 -125 -48 -241.5t-124 -207.5t-168 -146.5t-180 -55.5q-121 0 -191 89t-70 235zM184 291q0 -117 49 -185q49 -63 134 -63q80 0 157.5 53.5t141 136 t102.5 185t39 200.5q0 51 -13.5 96.5t-37 79t-57 53t-76.5 19.5q-76 0 -154 -51t-141.5 -133t-103.5 -185.5t-40 -205.5z" />
<glyph unicode="1" horiz-adv-x="800" d="M-53 -14q0 33 26 41q41 12 114 28.5t187 32.5q0 29 16.5 79t43 113.5t61.5 135t71 143.5t70.5 138.5t63.5 119.5q-45 -25 -90 -48.5t-83 -42.5t-63.5 -31.5t-27.5 -14.5q-6 -4 -17 -4q-14 0 -26 11t-12 30q0 27 20 35l46 22q46 23 107.5 55.5t126 67.5t103.5 64 q16 12 25 12q10 0 26 -12q12 -12 13 -31q0 -10 -5 -19q-35 -63 -76.5 -141t-83.5 -158t-81 -158.5t-71 -147t-52.5 -123t-24.5 -85.5q53 6 107.5 10.5t113.5 4.5q23 0 44.5 -5.5t21.5 -35.5q-2 -16 -13.5 -27.5t-27.5 -11.5q-98 0 -194.5 -10.5t-176 -23.5t-137 -26.5 t-76.5 -17.5q-6 -2 -13 -4t-17 -2q-16 0 -27.5 10t-11.5 27z" />
<glyph unicode="2" horiz-adv-x="956" d="M0 43q0 25 20 35q248 123 405 219t246 170t120.5 126t31.5 89q0 72 -35.5 113t-83 62.5t-96.5 26.5t-73 5q-53 0 -106.5 -19.5t-96.5 -43t-72 -43t-31 -19.5q-16 0 -28.5 13.5t-12.5 29.5q0 6 2.5 10t6.5 10q23 29 63.5 54.5t87.5 45t96.5 31t90.5 11.5q63 0 128.5 -15.5 t119 -49.5t87 -88t33.5 -134q0 -117 -159.5 -257t-489.5 -319q55 4 117.5 7.5t124.5 3.5q39 0 90 -1t96 -7.5t77 -18.5t32 -35q0 -16 -12.5 -27.5t-26.5 -11.5h-13q-51 14 -116.5 19.5t-133.5 5.5q-80 0 -159.5 -5t-142 -12.5t-102.5 -13.5t-40 -8h-4q-41 0 -41 41z" />
<glyph unicode="3" horiz-adv-x="999" d="M-45 -47q0 16 11 27.5t28 11.5q23 0 51.5 -6t63.5 -6q63 0 141 11t157.5 32.5t155.5 53.5t134.5 70.5t94 85t35.5 97.5q0 49 -27.5 80.5t-71.5 48t-98.5 22.5t-107.5 6q-47 0 -89 -5t-66 -5q-16 0 -27.5 12.5t-11.5 30.5q0 27 28 33q100 27 200.5 61.5t179.5 73.5t128 77 t49 69q0 29 -32.5 40t-79.5 11q-57 0 -127 -12.5t-134.5 -31t-116.5 -38t-75 -33.5q-6 -6 -20 -6t-27.5 11t-13.5 30q0 21 20 35t74.5 35.5t125.5 42t147.5 35t144.5 14.5q92 0 143 -34t51 -99q0 -43 -31.5 -82t-84 -74t-117 -64.5t-127.5 -54.5q57 -8 107.5 -23.5t87 -43 t58 -67.5t21.5 -95q0 -66 -38 -123t-102.5 -104.5t-147 -85t-171 -64.5t-177.5 -40t-162 -13q-25 0 -52.5 1t-50 6t-37 16t-14.5 30z" />
<glyph unicode="4" horiz-adv-x="913" d="M80 416q0 12 7 28.5t27.5 47t59.5 83t100 134.5q33 41 66 85t61.5 82.5t49 70.5t28.5 48q8 25 37 25q18 0 27.5 -12.5t9.5 -28.5q0 -20 -39 -77.5t-94 -132.5t-117.5 -157t-109.5 -151q88 25 212.5 60.5t260.5 58.5q39 70 77.5 138t67.5 127.5t47.5 104.5t18.5 70 q0 16 11 27.5t27 11.5t28.5 -11.5t12.5 -27.5q0 -55 -50 -160.5t-142 -265.5q20 2 39.5 4t40.5 2q23 0 45.5 -2t42.5 -6q35 -10 35 -41q0 -18 -12.5 -28.5t-28.5 -10.5t-37 2t-43 2q-31 0 -64.5 -2t-68.5 -8q-49 -88 -104.5 -183.5t-101.5 -181.5t-76 -154.5t-30 -101.5 q0 -18 -11 -28.5t-28 -10.5q-16 0 -28 10.5t-12 28.5q0 74 78.5 225.5t211.5 378.5q-86 -16 -165.5 -36.5t-144 -39t-108.5 -30.5t-61 -12q-20 0 -36.5 11t-16.5 34z" />
<glyph unicode="5" horiz-adv-x="1001" d="M0 115q0 12 4 30.5t12.5 35t20.5 27.5t26 11t27.5 -13t13.5 -30q0 -12 -12 -28.5t-12 -32.5q0 -23 20.5 -34t49.5 -11q156 0 278.5 41t205.5 98t127 119.5t44 103.5q0 63 -43 102t-102.5 59.5t-123 27t-102.5 6.5q-25 0 -38 -1t-19 -1t-7 -1t-3 -1q-16 0 -26.5 11 t-10.5 25t4 21l112 225q10 18 31 21l561 96h6q16 0 27.5 -8t13.5 -23q0 -16 -6 -29.5t-24 -15.5q-143 -25 -258 -45q-49 -8 -97.5 -16t-88.5 -15.5t-67.5 -12.5t-35.5 -5q-8 -16 -29.5 -60t-42.5 -85q31 0 76 -3.5t95 -13.5t100.5 -28.5t90.5 -48t64.5 -74.5t24.5 -107 q0 -51 -45 -126t-136.5 -143.5t-230.5 -119.5t-325 -53q-59 0 -104.5 32.5t-45.5 92.5z" />
<glyph unicode="6" horiz-adv-x="1005" d="M80 211q0 98 65.5 206.5t170 218t231.5 214t250 194.5q16 8 22 9q16 0 28.5 -11.5t12.5 -29.5q0 -20 -16 -33q-164 -117 -291 -227.5t-215 -209t-133 -182.5t-45 -149q0 -39 21.5 -65.5t52 -44t66.5 -24.5t67 -7q78 0 161.5 24.5t154.5 65.5t117 94t46 108q0 27 -53 27 q-47 0 -120 -22.5t-146.5 -58.5t-139 -81t-100.5 -92q-8 -14 -31 -14q-16 0 -28.5 10t-12.5 27q0 10 8 26q37 49 105.5 99.5t150.5 91.5t165 67.5t149 26.5q63 0 98 -28.5t35 -78.5q0 -76 -51.5 -143t-133.5 -118.5t-181 -81t-193 -29.5q-53 0 -105.5 13t-92.5 41t-64.5 70 t-24.5 97z" />
<glyph unicode="7" horiz-adv-x="854" d="M141 862q0 23 39 43q10 6 67.5 25.5t137.5 42t170 40t164 17.5t118 -24.5t44 -79.5q0 -37 -20.5 -90.5t-54.5 -117t-79 -138t-96 -154.5q-43 -70 -88 -142.5t-81 -139t-58.5 -121t-22.5 -86.5q0 -16 -12.5 -28.5t-28.5 -12.5t-27.5 12t-11.5 29q0 41 21.5 99t58.5 127.5 t85 147.5t99 158q41 66 82 134.5t75 130t54.5 112.5t20.5 86q0 12 -24.5 15t-47.5 3q-55 0 -132 -13t-152.5 -32.5t-137 -39t-88.5 -31.5q-10 -2 -19.5 -5.5t-17.5 -3.5q-10 0 -23.5 7.5t-13.5 29.5z" />
<glyph unicode="8" horiz-adv-x="878" d="M61 135q0 43 19.5 85t59.5 88t102.5 99.5t150.5 114.5q-49 66 -85 127.5t-36 120.5l2 29q4 23 23.5 62.5t71 79.5t143.5 69.5t242 29.5h55q37 0 67.5 -7t30.5 -38q0 -16 -9 -27.5t-28 -11.5q-33 0 -60.5 2.5t-53.5 2.5q-102 0 -178 -16.5t-126.5 -44.5t-75 -61.5 t-24.5 -68.5q0 -41 32 -94t75 -109q47 33 116.5 81t136 96.5t114.5 89t55 61.5q10 29 39 29q16 0 27 -12.5t11 -26.5q0 -29 -32.5 -66t-91 -84t-142.5 -104.5t-184 -124.5q33 -41 63.5 -82t55 -82t39 -81t14.5 -77q0 -20 -11.5 -60t-47 -81t-103 -71.5t-182.5 -30.5 q-41 0 -89 10t-89 32.5t-69 59.5t-28 92zM141 139q0 -29 16.5 -50t41 -36.5t55 -24t59.5 -8.5q39 0 88.5 5.5t93.5 23t74.5 50t30.5 85.5q0 27 -14.5 61t-37 69.5t-51 72.5t-55.5 72q-147 -100 -224 -178t-77 -142z" />
<glyph unicode="9" horiz-adv-x="905" d="M121 692q0 61 43 119.5t112.5 105t159.5 75t182 28.5q53 0 105.5 -14.5t92.5 -42t64.5 -68.5t24.5 -96q0 -104 -46 -227t-126 -243t-186.5 -226.5t-224.5 -180.5q-8 -4 -21 -4q-16 0 -28.5 10.5t-12.5 28.5q0 25 21 33q76 47 146.5 111.5t134 137t114.5 152.5t86 158 q-59 -33 -128 -47.5t-140 -14.5q-78 0 -145.5 15.5t-119 43t-80 64.5t-28.5 82zM201 692q0 -29 23.5 -48.5t43.5 -29.5q45 -23 105.5 -36t124.5 -13q72 0 136 15.5t114 48.5q6 4 16 4q14 0 27 -6q35 92 34 172q0 39 -21.5 65.5t-52 44t-66.5 24.5t-67 7q-82 0 -156.5 -23.5 t-133 -59.5t-93 -80t-34.5 -85z" />
<glyph unicode=":" horiz-adv-x="620" d="M121 45q0 41 21.5 74t60.5 33q27 0 45 -18.5t18 -47.5q0 -41 -26.5 -68.5t-59.5 -27.5q-23 0 -39 13t-20 42zM313 520q0 41 22.5 74t61.5 33q27 0 45.5 -18.5t18.5 -49.5q0 -41 -26.5 -68.5t-59.5 -27.5q-23 0 -40.5 14t-21.5 43z" />
<glyph unicode=";" horiz-adv-x="737" d="M121 -176q0 8 21.5 24.5t47 41t47 58.5t21.5 81v11t-2 42q0 31 14 53.5t43 22.5t44.5 -20.5t15.5 -67.5q0 -55 -31 -103.5t-71 -84.5t-77.5 -55.5t-52.5 -19.5q-14 0 -17 5.5t-3 11.5zM432 520q0 41 21.5 74t60.5 33q27 0 45.5 -18.5t18.5 -49.5q0 -41 -27 -68.5 t-57 -27.5q-23 0 -40.5 14t-21.5 43z" />
<glyph unicode="&#x3c;" horiz-adv-x="1142" d="M80 494q0 25 18 36l981 596q4 2 10.5 4.5t10.5 2.5q18 0 30.5 -11.5t12.5 -31.5q0 -23 -19 -35q-227 -139 -415 -254q-80 -49 -161 -98.5t-149.5 -90.5t-120 -71.5t-71.5 -42.5q53 -29 135 -77t170 -108.5t167 -127t126 -134.5q8 -12 8 -24q0 -16 -11 -29.5t-32 -13.5 q-20 0 -35 18q-29 39 -69.5 80t-91 80t-104.5 76.5t-105 70.5q-123 78 -261 150q-25 6 -24 35z" />
<glyph unicode="=" horiz-adv-x="1009" d="M160 291q0 20 20 35q2 0 25.5 10t71 25.5t119 33t169.5 31.5q66 10 118 16.5t122 12.5q39 0 45 -35q0 -16 -8 -28.5t-27 -16.5q-88 -10 -164.5 -20.5t-142.5 -20.5q-135 -23 -210 -50.5t-79 -29.5q-6 -4 -16 -4q-14 0 -28.5 11t-14.5 30zM160 500q0 20 20 35q2 2 25.5 12 t71 25.5t119 32t169.5 32.5q66 10 118 16t122 13q39 0 45 -35q0 -16 -8 -29.5t-27 -15.5q-88 -10 -164.5 -21.5t-142.5 -21.5q-135 -23 -210 -49.5t-79 -30.5q-6 -2 -16 -2q-14 0 -28.5 11t-14.5 28z" />
<glyph unicode="&#x3e;" horiz-adv-x="1302" d="M160 29q0 23 18 34q227 139 416 254q80 49 161 97.5t149.5 90.5t118.5 72.5t71 43.5q-53 29 -135 76.5t-169.5 108t-166 127t-125.5 134.5q-8 12 -9 25q0 16 11.5 29.5t31.5 13.5t35 -19q27 -39 69 -80t91 -79.5t103.5 -76.5t107.5 -71q123 -78 260 -150q25 -6 25 -32 q0 -27 -19 -39l-981 -596q-6 -2 -11 -4t-9 -2q-18 0 -30.5 11t-12.5 32z" />
<glyph unicode="?" horiz-adv-x="1198" d="M203 33q0 29 17.5 55.5t45.5 26.5q20 0 33.5 -14.5t13.5 -37.5q0 -33 -19.5 -53t-43.5 -20q-16 0 -29.5 10t-17.5 33zM293 365q0 14 6 24q23 47 44.5 94t44 86t49 67t61.5 38q113 29 223 77t198.5 103t143.5 112.5t55 104.5q0 29 -16.5 57.5t-53 51t-96 37t-147.5 14.5 q-162 0 -307 -57q-2 -2 -13 -3q-14 0 -27.5 11.5t-13.5 29.5q0 27 27 37q80 33 164 47.5t170 14.5q111 0 185.5 -19.5t120.5 -52.5t66.5 -76t20.5 -92q0 -45 -22.5 -87t-58.5 -79t-78 -68.5t-81 -56.5q-86 -53 -199.5 -101t-223.5 -75q-27 -6 -52.5 -36.5t-38.5 -59.5 q-6 -16 -19 -46t-28.5 -58.5t-31 -51t-29.5 -22.5q-18 0 -30.5 10t-12.5 25z" />
<glyph unicode="@" horiz-adv-x="1302" d="M47 104q0 190 88 367q55 111 141 208t185.5 172t204 122t196.5 55q14 2 26.5 2h26.5q111 0 180.5 -32.5t108.5 -83t53.5 -112t14.5 -116.5q0 -61 -12.5 -120.5t-40.5 -119.5q-29 -61 -82.5 -122.5t-119 -111.5t-134 -81t-127.5 -31q-29 0 -46.5 10.5t-27.5 25t-13 31.5 t-3 34q0 4 1 15t3 22q2 12 6 26q-55 -57 -94 -90t-68 -50.5t-47 -21.5t-31 -4q-47 0 -74.5 32t-27.5 85q0 37 14 77t39 80t55.5 78.5t61.5 69.5q16 14 49 45t75 60.5t90 52t95 22.5t73.5 -29.5t26.5 -56.5q0 -16 -11 -27.5t-32 -11.5q-14 0 -22 7.5t-17 17.5q-6 4 -10 9 t-8 5q-45 0 -112.5 -44t-130 -107.5t-107.5 -131t-45 -116.5q0 -31 18 -31q2 0 13.5 4.5t35 20.5t61.5 50t95 95q66 70 99.5 110t47.5 58q16 27 43 27q20 0 30.5 -12.5t10.5 -30.5q0 -14 -10 -27q-8 -12 -22.5 -42.5t-42.5 -90.5q-27 -59 -36 -94t-9 -51q0 -12 2 -15 q51 2 110.5 31t113.5 70t98 92t67 100q20 45 33.5 98.5t13.5 106.5q0 117 -67.5 189.5t-202.5 72.5q-43 0 -101.5 -13t-125 -43t-139.5 -78t-144 -118q-135 -129 -206 -279.5t-71 -310.5q0 -41 13.5 -82.5t43 -75.5t77.5 -55.5t116 -21.5q72 0 145.5 20.5t151.5 65.5 q4 2 14 2q41 0 41 -43q0 -25 -22 -37q-164 -92 -330 -92q-104 0 -163.5 34t-92.5 68q-37 45 -58.5 99.5t-21.5 117.5z" />
<glyph unicode="A" horiz-adv-x="1212" d="M-147 -14q0 29 34 57q66 49 137.5 107.5t141.5 118t134.5 121t119.5 116.5q213 217 341 364.5t199.5 236.5t101.5 127t48 38q37 0 37 -31v-8l-12 -53q-6 -25 -14.5 -57.5t-18.5 -90t-24.5 -143.5t-33.5 -217q16 2 35 2h33q39 0 39 -33q0 -18 -9 -28.5t-22.5 -14.5t-30 -5 t-30.5 -1h-25l-16 -172t-15.5 -159t-13.5 -129t-10 -85q-6 -76 -45 -76q-23 0 -31 12.5t-8 30.5q0 6 1 20.5t3 28.5l4 37l47 486q-203 -18 -304 -49t-138 -52q-135 -131 -279.5 -262t-298.5 -248q-6 -6 -17 -12t-28 -6q-12 0 -22 7t-10 22zM637 614q70 16 157 30.5t167 23.5 l22 149l2 21q8 61 16.5 115.5t18.5 105.5q-68 -86 -169 -206t-214 -239z" />
<glyph unicode="B" horiz-adv-x="995" d="M0 8q0 16 12.5 26.5t28.5 10.5l53 -2q23 -2 54.5 -4t62.5 -2q141 2 251.5 25.5t187.5 62.5t117 90t40 111q0 61 -33 107t-90 80t-135 53.5t-168 27.5q-72 -154 -133.5 -272.5t-93.5 -174.5q-10 -12 -21.5 -21t-19.5 -9q-14 0 -24.5 10t-10.5 27q0 4 4 18t24 49 q10 23 25.5 50.5t28.5 50.5q33 59 67.5 131.5t71.5 156.5q-23 16 -23 29q0 25 19.5 34t42.5 11q53 125 87 209t56 137q31 78 44.5 101.5t31.5 27.5q16 0 26.5 -9t10.5 -26l-2 -16q0 -2 -17.5 -56.5t-48.5 -127.5q-16 -41 -36.5 -90.5t-45.5 -96.5l-18 -37q119 27 215 63 t163.5 78t104.5 86t37 87q0 39 -30.5 67.5t-85 49t-129 30.5t-160.5 10q-74 0 -158 -16t-154 -39q-4 0 -5 -2t-3 -2q-16 0 -29.5 12.5t-13.5 28.5q0 25 43 42t101.5 29.5t120 18.5t98.5 6q162 0 280.5 -36.5t171.5 -102.5q33 -45 33 -96q0 -59 -38 -113.5t-103.5 -100.5 t-153.5 -84t-188 -69q160 -41 251 -121t91 -200q0 -82 -47 -149.5t-135.5 -116t-214.5 -75t-281 -26.5h-39q-27 0 -56.5 1t-54 6t-41 15.5t-16.5 26.5z" />
<glyph unicode="C" horiz-adv-x="1046" d="M53 281q0 125 38 234.5t93.5 198.5t117 157.5t108.5 111.5q68 61 138 110.5t140 84t133.5 53t116.5 18.5q92 0 146.5 -44t54.5 -120q0 -14 -6.5 -40.5t-17.5 -52t-28.5 -44t-37.5 -18.5q-16 0 -27.5 10t-11.5 27q0 14 8 24q16 23 26.5 47.5t10.5 44.5q0 41 -31 61.5 t-86 20.5q-37 0 -90 -16t-115.5 -47t-130 -77t-135.5 -105q-45 -41 -101.5 -104.5t-106.5 -146.5t-85 -180.5t-35 -203.5q0 -129 68.5 -198t206.5 -69q90 0 171 19.5t143.5 43t100 45t43.5 26.5q4 2 14.5 6t18.5 4q23 0 32 -13.5t9 -27.5q0 -10 -6 -22.5t-18 -18.5 q-4 -4 -45 -26.5t-109 -50.5t-158 -49.5t-192 -21.5q-168 0 -266.5 91.5t-98.5 257.5z" />
<glyph unicode="D" horiz-adv-x="1286" d="M0 956q0 31 48 74t130 84t190.5 75t231.5 46q57 6 121 6q145 0 260 -31.5t193.5 -89t120.5 -137.5t42 -176q0 -115 -63.5 -231.5t-170 -224t-245.5 -196.5t-291 -145q-100 -35 -214.5 -57.5t-225.5 -26.5q-16 0 -28.5 12.5t-12.5 28.5t11.5 27.5t27.5 13.5q152 10 295 52 t269 104.5t229.5 142.5t178 165t115.5 173t41 168q0 82 -39.5 147.5t-111.5 110.5t-171.5 68.5t-217.5 23.5q-80 0 -152 -11t-132 -28.5t-108.5 -37t-80.5 -33.5q-80 -39 -112 -67t-48 -48q-8 -12 -15.5 -18.5t-21.5 -6.5q-18 0 -30.5 12.5t-12.5 30.5zM166 154q0 8 4 20 q35 66 78 157t88 190.5t87 198.5t75.5 182t55 139.5t24.5 68.5q0 14 10 24.5t26 10.5q18 0 31.5 -9.5t13.5 -27.5q0 -6 -1 -13.5t-6 -22.5t-14 -43t-26 -71q-20 -49 -53 -129.5t-73 -175t-83 -190.5t-80.5 -174t-67.5 -127t-44 -49q-18 0 -31.5 12t-13.5 29z" />
<glyph unicode="E" horiz-adv-x="962" d="M0 -74q0 37 26.5 114t69.5 175t97.5 212t109.5 226.5t107.5 216t91.5 181.5q-20 0 -33.5 11t-13.5 32q0 18 25.5 33.5t68.5 31.5q0 10 11 27.5t28 17.5q8 0 15 -4t18 -18q88 25 234.5 51.5t363.5 32.5q39 0 43 -37q0 -16 -12.5 -27.5t-28.5 -15.5q-248 -6 -396.5 -37 t-214.5 -53q-29 -68 -91 -195t-150 -301q31 8 67.5 16.5t74.5 14.5t72.5 10t61.5 4q18 0 31.5 -11t13.5 -30q0 -14 -10 -25.5t-23 -11.5q-35 0 -86 -9t-102 -21.5t-92 -21.5t-53 -9q-47 -90 -81 -166t-59.5 -138.5t-45 -112.5t-36.5 -93q86 31 263.5 69.5t427.5 51.5 q14 -2 27.5 -13.5t13.5 -25.5q0 -16 -10.5 -28.5t-26.5 -12.5q-195 -8 -335 -34t-226 -48l-195 -68q-16 0 -28.5 12.5t-12.5 26.5z" />
<glyph unicode="F" horiz-adv-x="1015" d="M43 1032q0 10 5 18.5t11 14.5q18 10 61.5 25.5t102 33t127 35t139.5 33.5q98 23 187.5 36t148.5 13q211 0 211 -125q0 -43 -18.5 -101.5t-51 -126t-77.5 -143t-96 -157.5q29 4 63 10q29 4 65.5 9t77.5 11q16 0 31 -10t17 -28q0 -14 -10.5 -27.5t-30.5 -17.5l-27 -3 q-74 -8 -132.5 -17t-107.5 -19l-127 -209q-49 -80 -94 -156t-80 -142.5t-55.5 -122.5t-20.5 -99q0 -16 -12 -28.5t-28 -12.5t-27.5 12t-11.5 29q0 51 20.5 113.5t56 136t84 154.5t103.5 169q16 27 38.5 66.5t45.5 72.5q-90 -18 -150.5 -34.5t-97.5 -29t-55.5 -20.5t-24.5 -8 q-16 0 -30.5 10.5t-14.5 28.5q0 23 14 33q2 0 26 10t73 26.5t126.5 36t188.5 41.5q55 92 104.5 177.5t85 156t56 124.5t20.5 85q0 27 -35.5 36t-91.5 9q-47 0 -114.5 -10t-142 -25.5t-150.5 -36t-140.5 -39t-110.5 -34t-63 -23.5q-4 -2 -10 -2h-8q-18 0 -30.5 12.5 t-12.5 28.5z" />
<glyph unicode="G" horiz-adv-x="1128" d="M-133 -268q0 14 3 35.5t9 42t18.5 35t30.5 14.5q20 0 27.5 -12.5t7.5 -26.5q0 -16 -5 -41t-5 -47q0 -57 39 -86t104 -29q129 0 252 73.5t233.5 196.5t206 281t168.5 326q-86 -111 -178 -204t-181 -161t-172 -106.5t-151 -38.5q-70 0 -112.5 27.5t-67 66.5t-33 83t-8.5 77 q0 113 39 233.5t104.5 235t155.5 217t190.5 179.5t209 122t213.5 45q51 0 86.5 -12.5t59.5 -31t34 -39t10 -36.5t-7 -29.5t-24 -13.5q-16 0 -25 12.5t-22.5 27.5t-38 28.5t-73.5 13.5q-84 0 -177.5 -39t-184.5 -106.5t-175 -158.5t-147.5 -197.5t-101.5 -221.5t-38 -227 q0 -25 5.5 -54.5t18.5 -54.5t38.5 -42t68.5 -17q98 2 233.5 92t301.5 280q80 92 131 160t84 111t50.5 63.5t29.5 20.5q20 0 32.5 -13.5t12.5 -29.5q0 -4 -2 -13.5t-6 -13.5q0 6 -16.5 -44t-49.5 -134t-82 -190.5t-112 -213.5q-86 -145 -181.5 -259.5t-195 -194.5 t-202.5 -122t-204 -42q-94 0 -161.5 56.5t-67.5 146.5z" />
<glyph unicode="H" horiz-adv-x="1196" d="M0 14q0 78 61.5 219.5t159.5 333.5q-8 10 -8 19q0 10 11.5 23.5t25.5 19.5q25 45 57.5 105.5t66.5 126t66.5 130t58 118.5t42 92t18.5 48q4 16 17.5 30.5t29.5 14.5q16 -2 27.5 -15t11.5 -30q0 -23 -15.5 -62.5t-48 -107t-86 -167t-128.5 -240.5q104 27 274 56.5 t408 37.5q8 0 18 -1t16 -5q27 51 50 94q20 37 38.5 73t24.5 48q47 92 83 168t44 106q16 45 45 45q41 -4 41 -45q0 -39 -60.5 -165t-158.5 -312q-51 -98 -110.5 -216t-109.5 -226.5t-84 -194.5t-34 -121q0 -18 -13.5 -32.5t-31.5 -14.5q-16 0 -29.5 14.5t-13.5 32.5 q0 39 21.5 104.5t59.5 151.5t89 191.5t113 228.5q-129 -6 -242 -20.5t-206 -33t-163.5 -36.5t-118.5 -33q-41 -82 -82.5 -168t-74.5 -160.5t-53.5 -134t-20.5 -90.5q0 -18 -14.5 -32.5t-30.5 -14.5t-28.5 14.5t-12.5 32.5z" />
<glyph unicode="I" horiz-adv-x="888" d="M0 -33q0 10 7 22.5t26 18.5q10 2 38.5 9.5t65.5 14.5t74 13t61 10q4 59 32 138t69 167.5t90 178.5t96 170q37 61 74 123.5t65.5 119t47 101.5t18.5 71q0 4 2 13.5t8 15.5l-465 -109q-16 0 -29.5 12.5t-13.5 28.5q0 10 6.5 22.5t18.5 16.5q10 4 71.5 23.5t168 43t254 46.5 t327.5 31q16 -2 29.5 -11.5t13.5 -25.5q0 -18 -11 -30.5t-28 -14.5q-86 -4 -155.5 -10.5t-137.5 -14.5q10 -4 15.5 -16t5.5 -21q0 -33 -18.5 -83t-48 -111.5t-68.5 -132t-82 -144.5q-45 -80 -90 -159.5t-82 -155.5t-65 -144.5t-36 -121.5q90 14 173 23t126 9q20 0 34.5 -8 t14.5 -33q0 -16 -13 -29.5t-30 -13.5q-31 0 -105.5 -9t-164.5 -22.5t-183 -28.5t-163 -28h-8q-14 0 -24.5 7.5t-10.5 27.5z" />
<glyph unicode="J" horiz-adv-x="1110" d="M2 307q0 18 11.5 31.5t31.5 13.5t29.5 -9t13.5 -36q2 -14 11.5 -57t37 -89t78.5 -82t137 -36q223 0 390 276.5t284 829.5q-178 -27 -291.5 -58.5t-167.5 -48.5q-12 -4 -27.5 -7t-11.5 -3q-16 0 -27.5 9.5t-11.5 25.5q0 18 8.5 27.5t20.5 15.5q6 2 67.5 21.5t170 43 t258 45t327.5 31.5q14 -2 25.5 -13t11.5 -28q0 -10 -9.5 -20t-27.5 -10q-45 0 -107.5 -7.5t-115.5 -11.5q-242 -1206 -766 -1206q-98 0 -163.5 38t-106.5 92t-59.5 114.5t-20.5 107.5z" />
<glyph unicode="K" horiz-adv-x="1095" d="M57 33q0 76 62.5 216t161.5 335q-4 6 -9.5 15t-5.5 19q0 29 24.5 39.5t41.5 14.5q4 10 24.5 50t49 95t61.5 119.5t61.5 124t49 105.5t26.5 65q4 16 16.5 28.5t28.5 12.5q18 0 29.5 -12.5t11.5 -28.5q0 -23 -19.5 -64t-49.5 -106q-12 -25 -40 -81t-56.5 -114.5 t-50.5 -102.5l-21 -44q98 55 196.5 114.5t205 128t225 147.5t257.5 171q10 6 16.5 7t12.5 1q14 0 25.5 -10t11.5 -27q0 -20 -27.5 -40.5t-58.5 -43.5q-104 -72 -229 -153.5t-250 -159.5t-243 -145.5t-206 -108.5q39 -57 89 -119.5t104.5 -123t111 -115t107.5 -95.5t94 -64.5 t74 -23.5q18 0 30.5 -12t12.5 -31q0 -36 -37 -36h-2q-72 0 -158 57t-173 140t-166 177.5t-132 165.5q-41 -80 -78 -155.5t-64.5 -140t-44 -115t-16.5 -76.5q0 -20 -13 -33.5t-32 -13.5q-18 0 -28.5 13t-10.5 34z" />
<glyph unicode="L" horiz-adv-x="1222" d="M35 16q0 68 47 113t116.5 70.5t151.5 37t150 11.5h32q96 141 166 297.5t144 304.5q33 68 68.5 139.5t79.5 137t98.5 116.5t128.5 76h6q20 0 31.5 -12.5t11.5 -28.5q0 -12 -7.5 -25.5t-27.5 -17.5q-31 -6 -60.5 -30.5t-58.5 -59.5q-66 -86 -117 -184.5t-103 -210 t-114.5 -238.5t-150.5 -274q123 -23 232.5 -79.5t215.5 -121.5q51 -33 100.5 -63.5t108.5 -43.5q16 -4 23.5 -16t7.5 -23q0 -14 -9.5 -28.5t-27.5 -14.5h-8q-45 8 -84 25.5t-77 40.5t-74 47.5t-74 46.5q-96 55 -189.5 95t-196.5 55q-37 -53 -79.5 -101.5t-92 -84t-104.5 -57 t-119 -21.5q-72 0 -108.5 37.5t-36.5 84.5zM117 16q0 -18 25.5 -27t41.5 -9h4q84 0 140.5 40.5t97.5 85.5q12 12 25.5 26.5t25.5 29.5q-18 0 -76.5 -6t-122 -22.5t-112.5 -44.5t-49 -73z" />
<glyph unicode="M" horiz-adv-x="1714" d="M78 -43q0 8 2 14q35 117 77 253t84 274.5t79.5 268.5t67.5 236.5t47.5 180t17.5 96.5q0 57 45 57q12 0 24.5 -8t12.5 -37q0 -23 -10.5 -80t-36 -162.5t-71.5 -266t-118 -390.5q92 152 190.5 302.5t193.5 269t179 192.5t148 74q41 0 62.5 -34t21.5 -112 q0 -53 -10.5 -128.5t-28 -159.5t-38 -168t-38.5 -156q55 72 116.5 147.5t125 148.5t125 138.5t118 113.5t103.5 76.5t82 28.5q33 0 52 -22.5t19 -56.5q0 -41 -26.5 -114t-77.5 -190q-29 -70 -61.5 -150.5t-60.5 -163.5t-45 -164t-17 -150q0 -61 20.5 -115.5t63.5 -93.5 q2 -2 7 -9.5t5 -17.5q0 -16 -13.5 -28.5t-29.5 -12.5q-14 0 -31 10q-39 27 -73.5 93.5t-34.5 173.5q0 72 21.5 165t54 190t70.5 192.5t70.5 172t54 130t21.5 65.5q0 8 -8 8q-16 0 -59 -35.5t-102.5 -97t-132 -143.5t-148.5 -174t-150.5 -190.5t-140.5 -190.5q-4 -4 -14.5 -9 t-20.5 -5q-16 0 -29.5 12t-13.5 28q0 8 4 15q37 117 70 250t59.5 253.5t42 217t15.5 139.5q0 27 -9 27q-35 0 -95 -55.5t-135 -148.5t-158 -215t-164.5 -255t-157.5 -269.5t-133 -254.5q-6 -10 -16.5 -14.5t-20.5 -4.5q-20 0 -31.5 11.5t-11.5 27.5z" />
<glyph unicode="N" horiz-adv-x="1097" d="M72 6q0 8 2 12q63 172 120.5 353.5t101.5 343.5t70.5 288.5t26.5 192.5q0 45 -10 57q-10 10 -20.5 22.5t-10.5 22.5q0 16 9.5 29.5t21.5 13.5q43 0 68.5 -35.5t25.5 -113.5q0 -61 -14 -147.5t-38 -183.5t-53.5 -200.5t-58.5 -201.5l6 -4q82 129 174.5 263t181.5 244.5 t170 180t140 69.5q70 0 91.5 -38.5t21.5 -88.5q0 -29 -8.5 -68.5t-20.5 -87.5t-29.5 -99.5t-35.5 -102.5q-25 -68 -48.5 -142.5t-43 -148.5t-32 -144.5t-12.5 -129.5q0 -63 19.5 -118.5t54.5 -90.5l16 -33q0 -18 -13 -30.5t-30 -12.5q-16 0 -30 8h2q-55 53 -80 123t-25 154 q0 66 12.5 139.5t32 149t45 151.5t50.5 146q16 45 32.5 93t29.5 93t21.5 84t8.5 65q0 20 -4 32.5t-25 12.5q-37 0 -94 -53t-129 -142t-152 -206t-160.5 -246t-158.5 -262t-141 -252q-6 -10 -29 -10q-20 0 -34.5 15.5t-14.5 33.5z" />
<glyph unicode="O" horiz-adv-x="1062" d="M20 311q0 102 24 202.5t65 197.5q39 90 107.5 195.5t156.5 196.5t192.5 151.5t216.5 60.5q41 0 85 -10t87 -33q10 -8 13.5 -16.5t3.5 -16.5q0 -16 -11.5 -28.5t-31.5 -12.5h-13q-57 29 -124 29q-88 0 -172 -42t-161 -113t-141.5 -164t-110.5 -195.5t-73 -207t-27 -198.5 q0 -45 9.5 -94t31 -89t58.5 -65.5t92 -25.5q84 0 166 43t156.5 112.5t137 159.5t108.5 184.5t72 184.5t26 162q0 41 -7.5 83t-25 76.5t-46 58t-71.5 27.5q-37 12 -37 41q0 16 12.5 29.5t36.5 13.5q66 0 108 -33.5t66.5 -85t33.5 -110.5t9 -111q0 -86 -29.5 -188 t-80.5 -203.5t-122 -197t-155 -169t-175 -117.5t-185 -44q-80 0 -132 33.5t-84 86t-45.5 117t-13.5 125.5z" />
<glyph unicode="P" horiz-adv-x="870" d="M0 35q0 66 27.5 138.5t72.5 172.5l23 41q-31 0 -54.5 5t-23.5 34t23.5 38t54.5 13h22.5t22.5 2q2 8 9 22.5t9 18.5q43 78 88 165t82 166t61.5 141.5t24.5 92.5q0 16 12.5 29.5t30.5 13.5q16 0 28.5 -13t12.5 -30q0 -47 -28.5 -119.5t-68.5 -155.5t-85 -166t-76 -150 q70 14 152 37.5t163 56.5t155.5 73.5t132 90t91 105.5t33.5 118q0 49 -29.5 87t-84 63.5t-130 39t-167.5 13.5q-139 0 -259 -37t-202 -76l-8 -4t-11 -2q-16 0 -26 13t-10 30q0 8 4 19.5t16 21.5q31 20 89.5 41.5t128 39t143.5 28t135 10.5q111 0 203 -18.5t157.5 -55.5 t102 -90.5t36.5 -122.5q0 -80 -38.5 -149.5t-105.5 -128t-154 -106.5t-183 -86t-193.5 -64.5t-185.5 -43.5q-55 -117 -95 -210t-40 -152q0 -18 -13.5 -31.5t-31.5 -13.5q-16 0 -29.5 13t-13.5 32z" />
<glyph unicode="Q" horiz-adv-x="1062" d="M0 29q0 14 14 32q16 12 30.5 24.5t33.5 23.5q-20 49 -28.5 101t-8.5 101q0 102 22.5 202.5t63.5 197.5q39 90 107.5 195.5t157.5 196.5t193.5 151.5t215.5 60.5q43 0 86 -10.5t88 -32.5q16 -14 16 -33q0 -16 -11 -28.5t-32 -12.5h-14q-55 29 -125 29q-86 0 -171 -42 t-161 -113t-140.5 -164t-111.5 -195.5t-73.5 -207t-26.5 -198.5q0 -39 5 -78t20 -75q41 20 81.5 33.5t85.5 13.5q63 0 116.5 -31t101.5 -66q92 61 174 157.5t143 206.5t96 218.5t35 192.5q0 41 -7 83t-24.5 76.5t-46 58t-71.5 27.5q-37 12 -37 41q0 16 12 29.5t35 13.5 q66 0 108.5 -33.5t67 -85t34 -110.5t9.5 -111q0 -96 -36 -210.5t-98.5 -226.5t-146.5 -212t-180 -168q33 -25 62.5 -41t60.5 -16q37 0 77 21.5t68 43.5q14 14 41 15q16 0 27.5 -9.5t11.5 -31.5q0 -6 -6 -16.5t-10 -16.5q-53 -51 -113.5 -73.5t-101.5 -22.5 q-55 0 -102.5 31.5t-92.5 70.5q-53 -27 -105 -42t-106 -15q-68 0 -114.5 23.5t-77.5 64.5q-16 -12 -29.5 -22.5t-23.5 -20.5q-8 -4 -25 -4q-18 0 -30.5 11t-12.5 28zM193 82q23 -23 52 -36t72 -13q66 0 136 28q-33 25 -67 40.5t-75 15.5q-61 0 -118 -35z" />
<glyph unicode="R" horiz-adv-x="960" d="M6 35q0 66 24.5 138.5t69.5 172.5l23 41q-31 0 -54.5 5t-23.5 34q0 35 34 43t71 8h16l20 43q39 80 84 167t84 166t63.5 140.5t24.5 91.5q0 16 12.5 29.5t30.5 13.5q16 0 27.5 -13t11.5 -30q0 -47 -28.5 -120.5t-69.5 -156.5t-85 -167t-75 -152q70 12 152 36t163 56.5 t156.5 75.5t134 92.5t93 106.5t34.5 119q0 49 -30.5 87t-86 63.5t-131 39t-167.5 13.5q-139 0 -259 -37t-202 -76l-8 -4t-11 -2q-16 0 -26 13t-10 30q0 20 20 37q31 23 89.5 44t128 38.5t143 28t135.5 10.5q111 0 203 -18.5t157.5 -54.5t102 -89.5t36.5 -122.5 q0 -76 -37.5 -143.5t-102 -126t-147.5 -107.5t-175.5 -88t-186.5 -67t-178 -42q53 -45 125 -96t149.5 -97t158.5 -79t155 -39q41 -4 41 -39q0 -41 -41 -41q-80 0 -178.5 40t-192.5 94.5t-170 110.5t-108 91q-20 -43 -40 -88t-36.5 -87t-26.5 -78t-10 -58q0 -18 -12.5 -30.5 t-28.5 -12.5t-25.5 12t-9.5 31z" />
<glyph unicode="S" horiz-adv-x="1038" d="M-133 16q0 14 9 26.5t30 12.5q31 0 51 -10q51 -16 105.5 -23.5t107.5 -7.5q94 0 208 23.5t211 69t162.5 110t65.5 145.5q0 41 -33.5 82t-86 83t-112 87t-111.5 92.5t-86 98.5t-34 106q0 76 38 138.5t101.5 105.5t145.5 66.5t170 23.5q35 0 67.5 -4t61.5 -14 q16 -6 22.5 -18.5t6.5 -22.5q0 -16 -11.5 -28.5t-31.5 -12.5q-29 0 -61 9t-66 9q-59 0 -123 -16.5t-115 -49t-84 -79.5t-33 -111q0 -39 34 -79t85 -83t111.5 -88t112 -92t85 -98t33.5 -105q0 -86 -42 -151.5t-108.5 -113.5t-149.5 -80.5t-164 -52t-152.5 -28t-116.5 -8.5 q-27 0 -64.5 3t-76.5 9.5t-73 14.5t-52 16q-16 6 -26.5 18.5t-10.5 26.5z" />
<glyph unicode="T" horiz-adv-x="841" d="M0 1090q0 16 12.5 26t34.5 10l127 -10q135 0 272.5 23.5t271.5 53.5t263 53.5t246 23.5q45 0 79.5 -6.5t34.5 -40.5q0 -16 -11 -28.5t-32 -12.5q-8 0 -19 3t-38 3q-154 0 -287 -25.5t-268 -56.5q10 -4 20.5 -14.5t12.5 -26.5q-10 -63 -33.5 -122.5t-53.5 -116t-62.5 -112 t-63.5 -110.5q-78 -141 -131 -280.5t-68 -303.5q-4 -23 -16 -31.5t-27 -8.5q-16 0 -29.5 13t-13.5 36q14 172 71.5 320.5t141.5 299.5q27 49 58.5 99.5t60.5 102.5t50.5 107.5t29.5 114.5q4 8 8 14.5t8 10.5q-121 -27 -241.5 -43.5t-249.5 -16.5q-33 0 -65 2t-64 9 q-20 6 -24.5 16t-4.5 25z" />
<glyph unicode="U" horiz-adv-x="1067" d="M0 197q0 88 19.5 189t51 204.5t68.5 203t73 182.5t64.5 144.5t42.5 87.5q16 31 46 31q18 0 29.5 -14.5t11.5 -26.5q0 -16 -7 -24q-43 -94 -97 -220.5t-101 -260.5t-80 -263t-33 -229q0 -59 17.5 -96t64.5 -37q51 0 124 55t155.5 147t173 209t174.5 242t158.5 245.5 t127.5 219.5q4 4 15.5 11t27.5 7q12 0 17 -4h-4q16 -10 23 -20.5t7 -20.5q0 -4 -2 -8l-4 -8q-84 -182 -161.5 -372.5t-138 -357.5t-97.5 -293t-37 -179q0 -16 5 -24.5t11.5 -15.5t11.5 -14.5t5 -19.5q0 -20 -14.5 -32.5t-30.5 -12.5q-20 0 -33 10q-16 12 -29.5 38t-13.5 60 q0 53 17.5 133t45 173.5t63.5 192.5t73 194q-84 -123 -175.5 -240t-180.5 -207t-172 -145.5t-150 -55.5q-86 0 -124 59.5t-38 162.5z" />
<glyph unicode="V" horiz-adv-x="802" d="M121 1186q2 16 10 34.5t27 18.5q20 0 33.5 -8t15.5 -33v-11t4 -18q6 -53 16.5 -166.5t21.5 -252t18 -285t7 -262.5q47 84 111 191.5t136.5 221t150.5 226t153.5 210t146.5 172t128 109.5q10 8 24 8q16 0 26.5 -13t10.5 -30q0 -14 -9 -24t-19 -17q-70 -51 -157 -156.5 t-180.5 -236.5t-184.5 -273t-165.5 -269t-126 -222.5t-65.5 -132.5q-10 -20 -43 -20q-20 0 -31.5 13t-11.5 32l12 219q0 86 -4 187.5t-10 206t-13.5 203.5t-14.5 179t-12 133.5t-5 65.5z" />
<glyph unicode="W" horiz-adv-x="1572" d="M70 70q0 61 26.5 157.5t68.5 209t94 233.5t104.5 232.5t99.5 205.5t80 154q4 8 15 15t22 7q16 0 29.5 -14.5t13.5 -36.5q0 -4 -1 -6t-1 -4q-57 -111 -113.5 -228.5t-109 -233.5t-97.5 -224.5t-78 -199.5t-52 -159.5t-19 -103.5q0 -12 10 -13q39 0 119.5 79t182 211 t214.5 304t215 359q8 12 20.5 23.5t30.5 11.5q16 0 23.5 -12.5t7.5 -28.5v-6.5t-2 -8.5q-4 -10 -6 -20t-6 -21q-37 -129 -74 -284.5t-37 -329.5q0 -51 5 -96t19.5 -79t36 -53.5t56.5 -19.5q51 0 116.5 53.5t133 138.5t132 192.5t116 217t82 209.5t30.5 172q0 18 12.5 31.5 t28.5 13.5q18 0 32.5 -13t14.5 -32q0 -78 -33 -187.5t-87 -228t-125.5 -234.5t-148.5 -209t-156 -150.5t-148 -57.5q-53 0 -92 25.5t-64 70.5t-37 107.5t-12 136.5q0 51 5 103.5t11 97.5t13.5 82t13.5 59q-31 -53 -80 -127t-107.5 -154.5t-123 -158.5t-126 -140.5 t-117.5 -101.5t-99 -39q-35 0 -58.5 25.5t-23.5 77.5z" />
<glyph unicode="X" horiz-adv-x="1212" d="M0 -125q23 76 80 175.5t138 210t178.5 226t199.5 222.5q-4 14 -19.5 69.5t-38 123t-50 133t-56.5 98.5q-16 4 -28.5 15t-12.5 26q0 18 11.5 31.5t31.5 13.5q31 0 56.5 -26t52 -79t57.5 -136t68 -196q76 76 159.5 152t163.5 144.5t151.5 126t127.5 93.5q14 9 26 9 q18 0 27.5 -13.5t9.5 -31.5q0 -23 -22 -37q-59 -39 -135 -101.5t-159 -134t-166 -148.5t-153 -147q35 -100 77 -207.5t86 -196.5t89 -146.5t88 -57.5q18 0 31.5 -12.5t13.5 -30.5q0 -45 -39 -45q-61 0 -117.5 52t-107.5 139t-97 200t-89 232q-96 -104 -186.5 -212 t-164 -208.5t-125 -189.5t-69.5 -158q-4 -14 -17.5 -22.5t-25.5 -8.5q-45 0 -45 43v10z" />
<glyph unicode="Y" horiz-adv-x="1132" d="M-164 -287q0 16 3 38t10.5 41.5t19.5 32.5t31 13q20 0 27 -12t7 -29q0 -16 -6 -39.5t-6 -46.5q0 -53 41 -85t107 -32q104 0 205.5 59.5t194.5 156t178 219.5t155.5 250t127 246.5t93.5 209.5q-248 -356 -422 -531t-307 -175q-82 0 -125 59t-43 170q0 88 20.5 193.5 t52 216t71.5 219.5t79 205q4 12 17.5 18t25.5 6q18 0 30.5 -13t12.5 -30q0 -10 -16.5 -55t-40 -110.5t-52 -147.5t-52 -166t-40 -167t-16.5 -151q0 -66 14.5 -112.5t61.5 -46.5q27 0 72 19.5t111.5 73.5t154.5 152.5t203 258.5q109 152 178 258t121 190q20 35 33.5 55.5 t35.5 20.5q16 0 29.5 -11.5t13.5 -25.5v-10t-4 -15q-25 -66 -49.5 -136t-59 -157.5t-84 -199t-122.5 -258.5q-98 -199 -205 -352.5t-217.5 -258t-221 -159t-214.5 -54.5q-102 0 -168 56.5t-66 148.5z" />
<glyph unicode="Z" horiz-adv-x="966" d="M-2 195q0 49 15.5 95t43 82t65.5 57.5t81 21.5q37 0 68.5 -25t59 -60.5t49 -75.5t38.5 -71q98 109 189 239t165 255t126 228t77 159q-12 -4 -32.5 -7t-61.5 -3q-57 0 -113.5 17t-103.5 40t-96.5 40t-96.5 17q-31 0 -61.5 -10t-57 -30.5t-43 -51.5t-16.5 -74 q0 -14 -12.5 -34.5t-34.5 -20.5q-29 0 -35 18.5t-6 38.5q0 63 26.5 109.5t67.5 77t90 45t96 14.5q49 0 102.5 -20.5t98.5 -38.5q47 -16 97.5 -39t105.5 -23q41 0 84 20.5t82 45.5q4 2 13 6t13 4q16 0 27.5 -13.5t11.5 -29.5q0 -4 -7 -18.5t-16.5 -33t-19.5 -37.5t-18 -34 q-57 -115 -125 -239.5t-143.5 -247.5t-158.5 -236.5t-171 -208.5q8 -16 32.5 -56t58.5 -81t76 -72.5t83 -31.5q53 0 102 43q4 6 14.5 14t18.5 8q12 0 22.5 -11t10.5 -28q0 -25 -17.5 -45t-43 -35.5t-55.5 -23.5t-54 -8q-49 0 -94.5 25.5t-85.5 65.5t-75.5 88t-64.5 93 q-53 -47 -112.5 -84t-122.5 -37q-35 0 -64 20.5t-49.5 53.5t-31.5 73t-11 81zM74 207q0 -25 5 -51.5t15 -50t26.5 -38t39.5 -14.5q51 0 103 37t91 72q-10 16 -18 33q-8 14 -17.5 29.5t-15.5 25.5q-6 6 -11 15t-7 11v5q-23 35 -47.5 59.5t-42.5 24.5q-27 0 -49.5 -14.5 t-38 -37t-24.5 -51.5t-9 -55z" />
<glyph unicode="[" horiz-adv-x="1026" d="M0 -264q0 14 8 24q96 139 187.5 296t177.5 321t168 329.5t159 325.5l197 406q23 41 44.5 64.5t59.5 23.5q49 0 87 -4t71 -4q35 0 71 2t83 8q16 0 29.5 -8.5t15.5 -26.5q0 -18 -14.5 -29.5t-37 -16.5t-48 -7t-50.5 -2h-49q-29 0 -59.5 1t-71.5 5l-27 2q-6 0 -27.5 -40 t-51 -97.5t-61.5 -123t-56 -118.5q-76 -158 -157 -323.5t-167 -330.5t-176 -325t-184 -303q41 2 74.5 3t62.5 1q53 0 103.5 -3t115.5 -7l4 -2q16 0 27.5 -10.5t11.5 -26.5q0 -20 -13 -30.5t-30 -10.5h-6q-63 4 -110.5 7t-94.5 3t-98 -3t-125 -9q-14 0 -28.5 9t-14.5 30z" />
<glyph unicode="\" horiz-adv-x="1331" d="M268 1323q0 16 12.5 28.5t28.5 12.5t24.5 -11.5t14.5 -27.5q35 -86 84 -195.5t104.5 -232.5t116 -254t118.5 -256t112.5 -240.5t99.5 -209.5q2 -4 2 -9.5v-9.5q0 -14 -9 -28.5t-30 -14.5q-20 0 -35 21l-583 1259q-23 53 -35 85t-17.5 49.5t-6.5 23.5t-1 10z" />
<glyph unicode="]" horiz-adv-x="1091" d="M-266 -260q0 18 14 29.5t36.5 16.5t48.5 7t50 2h51q29 0 59 -1t70 -5l27 -2q6 0 27.5 40t51.5 97.5t61.5 123t56.5 118.5q76 158 156.5 323.5t166.5 330.5t177.5 324t185.5 304q-41 -2 -76 -3t-63 -1q-53 0 -103.5 3t-116.5 7l-4 2q-16 0 -26.5 10.5t-10.5 26.5 q0 20 12.5 30.5t28.5 10.5h7q66 -4 111.5 -7t92.5 -3t98.5 3t125.5 9q14 0 28.5 -9t14.5 -30q0 -14 -9 -24q-96 -139 -187 -296t-177 -321t-168 -330t-160 -325l-196 -406q-23 -41 -44.5 -64.5t-60.5 -23.5q-49 0 -87 4t-69 4q-37 0 -72.5 -2t-82.5 -8q-16 0 -29.5 8 t-15.5 27z" />
<glyph unicode="^" horiz-adv-x="1056" d="M90 840q0 20 23 37q82 57 178 124.5t182 128t146.5 104.5t70.5 54q12 8 22.5 13.5t20.5 5.5q23 0 37 -35l16 -48q15 -48 41.5 -112.5t60.5 -133.5t68 -110q10 -10 11 -26q0 -18 -13.5 -30.5t-33.5 -12.5t-27 14q-31 33 -59.5 82t-53 101.5t-43 102.5t-30.5 87 q-33 -25 -83.5 -60.5t-107.5 -74.5t-115.5 -80t-108.5 -75t-86 -58.5t-48 -32.5q-8 -8 -25 -8q-12 0 -27.5 11t-15.5 32z" />
<glyph unicode="_" horiz-adv-x="1107" d="M0 -264h1108v-90h-1108v90z" />
<glyph unicode="`" horiz-adv-x="542" d="M160 1120q0 23 20 35q8 6 21 6q31 0 53 -49q23 -57 50.5 -98t70.5 -88q8 -6 8 -15q0 -10 -6 -13t-12 -3q-16 0 -39 12.5t-47.5 34t-49 50t-45.5 61.5q-12 16 -18 36.5t-6 30.5z" />
<glyph unicode="a" horiz-adv-x="790" d="M-35 117v26q0 47 23.5 105.5t62.5 120t90.5 120t107.5 103.5t113.5 72.5t108.5 27.5q45 0 81 -30.5t36 -61.5q0 -12 -11.5 -25.5t-27.5 -13.5q-14 0 -23.5 7t-17.5 16.5t-17.5 17.5t-23.5 8q-63 0 -136 -52t-134.5 -126t-102.5 -154.5t-41 -136.5q0 -16 7.5 -35.5 t29.5 -19.5q25 0 70 35t98 92t110.5 130t110.5 146q12 16 33 17q35 0 39 -33q0 -14 -4 -22q-25 -45 -44.5 -93.5t-33.5 -93.5t-21.5 -84t-7.5 -65q0 -14 2 -21.5t17 -7.5q45 0 107.5 42t130 103.5t132 133t113.5 133.5q16 23 37 22q12 0 19.5 -9t7.5 -17q0 -18 -13 -31 q-96 -129 -192 -230q-41 -43 -85 -83.5t-88 -72.5t-86 -51.5t-79 -19.5t-58.5 14.5t-33 35t-13.5 42t-2 35.5q0 20 4.5 41t12.5 49q-31 -41 -69 -81t-76 -71.5t-74.5 -51t-65.5 -19.5q-47 0 -82 29.5t-41 87.5z" />
<glyph unicode="b" horiz-adv-x="813" d="M-20 55q0 35 20 92.5t55 143.5q29 68 80 171t109.5 218t119 228.5t109.5 204.5t80 146.5t31 53.5q14 20 37 20q20 0 28 -12t8 -27q0 -14 -4 -22q0 4 -29.5 -47t-75.5 -137.5t-103.5 -195t-113 -216t-103.5 -202.5t-74 -155q55 90 116.5 158t122 113t118.5 67.5t107 22.5 q63 0 103.5 -35t40.5 -98q0 -84 -52.5 -178.5t-134 -175t-181 -135t-193.5 -56.5q-16 0 -28.5 11.5t-12.5 29.5q0 16 11 27.5t30 11.5q74 2 158.5 49t156.5 115.5t119 148.5t47 148q0 57 -64 57q-78 0 -174 -71.5t-196 -215.5q-74 -104 -109 -167.5t-51 -97.5t-24.5 -45 t-28.5 -11q-23 0 -39 17.5t-16 45.5z" />
<glyph unicode="c" horiz-adv-x="710" d="M20 174q0 78 38 168t98.5 168t138.5 130t158 52q55 0 90 -27.5t35 -78.5q0 -12 -3.5 -28.5t-10.5 -32t-18 -26t-26 -10.5q-18 0 -29.5 10.5t-11.5 26.5q0 10 9.5 26.5t9.5 31.5q0 31 -45 30q-53 0 -115 -44t-114 -109.5t-86 -141t-34 -139.5q0 -45 26 -77.5t89 -32.5 t135 23.5t154 74.5t172 134t188 202q12 16 33 16q12 0 18.5 -10t6.5 -21q0 -4 -3 -12t-10 -14q-70 -94 -154.5 -180t-177 -150.5t-186.5 -103.5t-180 -39q-102 0 -148.5 53t-46.5 131z" />
<glyph unicode="d" horiz-adv-x="806" d="M0 168q0 59 21.5 122.5t58.5 123t84 113t98 93t100.5 63.5t92.5 24q25 -2 47 -11q16 -6 31.5 -17t15.5 -30q0 -20 -14.5 -25.5t-34.5 -5.5q-23 0 -47 9q-43 0 -106.5 -45t-123 -113t-101.5 -148.5t-42 -152.5q0 -33 4 -50.5t10 -25.5t13.5 -9t13.5 -1q29 0 78 43 t110.5 114.5t132 168t144.5 204.5q47 127 96 233t80 165q33 61 69.5 123.5t72.5 114.5t68 85t56 33q18 0 31.5 -12.5t13.5 -32.5q0 -27 -33.5 -101.5t-91 -179t-133.5 -226.5t-158 -245q-41 -109 -65.5 -212t-24.5 -187q0 -100 37 -152q8 -10 8 -24q0 -16 -12 -27.5 t-27 -11.5q-23 0 -39 22.5t-26 55.5t-15.5 70.5t-5.5 70.5q0 45 7.5 94t19.5 103q-129 -174 -230.5 -272.5t-162.5 -98.5q-63 0 -92 46t-29 122z" />
<glyph unicode="e" horiz-adv-x="737" d="M43 188q0 129 52 223.5t122 156t141.5 93t108.5 37.5l20 2q41 0 64.5 -13t35 -31.5t14.5 -38t3 -31.5q0 -53 -43 -113.5t-111.5 -113t-152.5 -90.5t-166 -46q-4 -10 -4 -18v-19q0 -20 6 -42.5t19.5 -41t36 -31t53.5 -12.5q92 0 190 50.5t185.5 119t155 138t97.5 106.5 q16 20 27.5 33.5t28.5 13.5q16 0 21 -10t5 -21q0 -6 -2 -11t-10 -15q-80 -115 -174 -204t-188.5 -151.5t-179.5 -95t-148 -32.5q-61 0 -101 21.5t-64 52t-33 67.5t-9 67zM141 309q55 10 123 41t125 71t96 84t39 81q0 35 -30 35q-23 0 -88.5 -27.5t-139.5 -93.5 q-35 -35 -69.5 -78t-55.5 -113z" />
<glyph unicode="f" horiz-adv-x="636" d="M-264 -770q0 100 28.5 235.5t75.5 289t109.5 317.5t131.5 322.5t139.5 306t133 266t112.5 202.5t81 117q66 78 127 78q6 0 19.5 -2t27.5 -11.5t24.5 -25.5t14.5 -47q0 -45 -23.5 -113.5t-65.5 -148.5t-98.5 -165t-121 -165t-134 -150.5t-139.5 -117.5l-47 -111 q33 0 44 -34.5t24.5 -77.5t40 -78t88.5 -35q39 0 98 44t124.5 108.5t129 136t111.5 129.5q14 20 34 20q8 0 17.5 -8t9.5 -16t-1 -14.5t-11 -18.5q-96 -133 -191 -236q-41 -43 -84 -85t-85 -74.5t-82 -53t-72 -20.5q-59 0 -90 17.5t-48 33.5q-6 -106 -25.5 -219t-48 -220.5 t-62.5 -202.5t-72.5 -168t-78.5 -115t-77 -42q-88 0 -88 152zM-184 -770q0 -35 4 -55q2 -8 6 -15q2 2 12 8.5t25.5 26t36 54t45.5 94.5q37 88 68.5 195.5t54 214t36 204.5t13.5 170q0 23 -11.5 46.5t-15.5 39.5q-55 -137 -105.5 -274.5t-88 -265.5t-59 -241.5t-21.5 -201.5z M256 586q82 80 157.5 179t135 196.5t95.5 179.5t36 127q0 4 -1 10t-7 6q-4 0 -21.5 -9t-46.5 -42q-20 -20 -56 -79.5t-83 -146.5t-100.5 -196t-108.5 -225z" />
<glyph unicode="g" horiz-adv-x="780" d="M-254 -770q0 70 43 147.5t125 170t198.5 202t264.5 244.5q23 78 45 162t31 145q-39 -47 -87.5 -100.5t-98.5 -97.5t-98 -73.5t-87 -29.5q-49 0 -84 39t-35 96q0 25 2 35q16 92 76.5 187.5t136.5 173t152 128t125 50.5q16 0 28.5 -11.5t12.5 -29.5q0 -16 -12.5 -27.5 t-28.5 -11.5t-53 -20.5t-83.5 -56.5t-94.5 -84t-89 -103.5t-66.5 -113.5t-25.5 -116q0 -23 9 -39t30 -16q31 0 82 39t106.5 96t109.5 121.5t91 116.5q14 18 35 18q16 0 26.5 -13.5t10.5 -29.5q0 -29 -6.5 -71t-16.5 -90t-22.5 -99t-22.5 -98q23 14 80 60t126 107.5 t136.5 131t114.5 129.5q16 23 37 22q12 0 19 -9t7 -17q0 -10 -5 -18.5t-7 -12.5q-31 -47 -86 -111.5t-128 -136.5t-157 -144.5t-170 -136.5q-47 -154 -108.5 -302t-135 -265t-157.5 -188.5t-172 -71.5q-53 0 -88 34t-35 89zM-174 -770q0 -12 3 -19.5t5 -9.5q8 -14 35 -14 q61 0 123.5 55.5t123 147.5t114 208.5t96.5 239.5q-80 -74 -155 -143.5t-136.5 -132t-105.5 -115.5t-64 -96q-23 -45 -31 -74t-8 -47z" />
<glyph unicode="h" horiz-adv-x="899" d="M0 41q0 70 40 187.5t99.5 253.5t131 278.5t133 259.5t105.5 195t50 88q14 20 35 20q16 0 27.5 -11.5t11.5 -27.5q0 -10 -4 -18q-45 -80 -114 -207t-141.5 -270.5t-139 -288t-107.5 -260.5q49 66 108.5 137.5t124 130.5t129 98t123.5 39q51 0 66.5 -29.5t15.5 -58.5 q0 -45 -21.5 -107.5t-60.5 -148.5q-10 -25 -23.5 -57.5t-24.5 -64.5t-18 -58.5t-7 -40.5v-10q27 0 75 23.5t114.5 73.5t148 132t176.5 199q18 23 34 22q10 0 18.5 -8t8.5 -18q0 -14 -12 -33q-174 -229 -323.5 -350t-239.5 -121q-27 0 -42.5 10t-23.5 25.5t-10 32t-2 28.5 q0 39 25.5 110.5t58.5 145.5q8 20 20.5 49t22.5 59.5t18 57.5t8 43q0 10 -2 14q-53 0 -125.5 -55t-148.5 -138t-146.5 -178.5t-119.5 -175.5q-8 -18 -31 -18q-16 0 -28.5 10t-12.5 31z" />
<glyph unicode="i" horiz-adv-x="509" d="M41 186.5q6 38.5 23.5 93t48.5 127t80 168.5q14 20 34 21q16 0 28.5 -12.5t12.5 -26.5q0 -10 -4 -18q-84 -164 -116.5 -265.5t-32.5 -150.5q0 -20 3 -32.5t25 -12.5q27 0 74 21.5t112.5 70.5t148.5 130t186 200q16 20 34 20q10 0 18.5 -8t8.5 -18t-2 -15.5t-10 -15.5 q-176 -221 -326.5 -343t-243.5 -122q-108 0 -108 121q0 29 6 67.5zM285 817q0 41 30.5 72t59.5 31q20 0 31.5 -13.5t11.5 -36.5q0 -8 -4 -28q-10 -33 -35 -55.5t-51 -22.5q-20 0 -31.5 15.5t-11.5 37.5z" />
<glyph unicode="j" horiz-adv-x="391" d="M-643 -770q0 70 43 147.5t125 170t198.5 202t264.5 244.5q37 100 68.5 194.5t55 171t38 132t18.5 81.5q10 33 37 33q25 0 34 -14t9 -33q-2 -12 -14.5 -56t-31 -109.5t-44 -146.5t-56.5 -169q23 14 77 59t120 104.5t131.5 128t112.5 128.5q16 23 37 22q12 0 19 -9t7 -17 q0 -10 -5 -18.5t-7 -12.5q-31 -47 -86 -111.5t-128 -136.5t-157 -144.5t-170 -136.5q-47 -154 -108.5 -302t-135 -265t-157.5 -188.5t-172 -71.5q-53 0 -88 34t-35 89zM-563 -770q0 -12 3 -19.5t5 -9.5q8 -14 35 -14q61 0 123.5 55.5t123 147.5t114 208.5t96.5 239.5 q-80 -74 -155 -143.5t-136.5 -132t-105.5 -115.5t-64 -96q-23 -45 -31 -74t-8 -47zM223 819q0 20 8.5 39t21.5 33t29.5 23.5t30.5 9.5q43 0 43 -47q0 -6 -1 -13.5t-3 -17.5q-10 -31 -34.5 -53.5t-51.5 -22.5q-20 0 -31.5 13.5t-11.5 35.5z" />
<glyph unicode="k" horiz-adv-x="788" d="M-14 53q0 43 28.5 125t75.5 188.5t109.5 230.5t129 250t134.5 248t125 224q14 20 35 20q18 0 29.5 -12t11.5 -29q0 -4 -2.5 -9l-4.5 -9q-74 -129 -145.5 -261t-136 -257t-120.5 -237.5t-97 -205.5q43 66 96 131.5t112.5 118t124 85t132.5 32.5q49 0 78.5 -14.5t45 -34 t20.5 -41t5 -35.5q0 -55 -36 -107.5t-93 -96.5t-127 -73.5t-137 -37.5q4 -25 14 -59.5t30.5 -66.5t54.5 -54.5t83 -22.5q18 0 29.5 -12.5t11.5 -28.5t-11 -27.5t-30 -11.5q-74 0 -124 34t-80.5 82t-46 102.5t-17.5 94.5q0 16 11 29.5t30 13.5q59 0 122.5 24t116 59.5 t86 77.5t33.5 79q0 31 -21.5 39t-47.5 8q-55 0 -112.5 -31.5t-112 -84t-104.5 -117t-93 -129t-76 -125t-51 -101.5q-6 -20 -33 -20q-20 0 -37.5 13.5t-17.5 41.5z" />
<glyph unicode="l" horiz-adv-x="559" d="M96 178q0 76 21.5 177.5t58.5 212t85 224t100.5 214t104.5 180.5t99 125q61 57 119 57q29 0 54.5 -18.5t25.5 -61.5q0 -68 -49 -174t-125 -221t-165 -223.5t-171 -182.5q-12 -18 -25.5 -57t-26 -85t-19.5 -91t-7 -76q0 -39 7 -65.5t22 -26.5q45 0 110.5 42t137 103.5 t140.5 134t120 134.5q18 20 35 20q12 0 19 -9t7 -19q0 -14 -12 -29q-70 -92 -151 -175t-157.5 -145.5t-142 -99.5t-106.5 -37q-53 0 -81 44t-28 128zM307 649q66 72 132.5 163t120.5 180t88 167t34 125q0 4 -2 4q-10 0 -25.5 -7.5t-38.5 -27.5q-37 -37 -77.5 -101.5 t-82.5 -145t-80 -173t-69 -184.5z" />
<glyph unicode="m" horiz-adv-x="1347" d="M0 43q0 55 18.5 125t45 140.5t58.5 138t60.5 121t48 87t23.5 37.5q14 20 33 21q39 0 39 -35q0 -10 -4.5 -18.5t-8.5 -18.5q-10 -18 -33.5 -60t-52 -99.5t-58.5 -123t-52 -129.5q49 63 109.5 137t127 136.5t133 103.5t125.5 41q27 0 44.5 -9t26.5 -23.5t12 -31t3 -30.5 q0 -41 -20.5 -102.5t-44.5 -118.5q-29 -68 -66 -139q43 55 98.5 115.5t113 112.5t112.5 86t102 34q27 0 43.5 -8.5t24.5 -19.5t10 -24.5t2 -25.5q0 -37 -18.5 -88t-44.5 -111q-10 -23 -20.5 -49.5t-19.5 -54t-15.5 -52t-6.5 -40.5q0 -10 2 -16.5t19 -6.5q25 0 83 38 t133 100.5t157.5 144.5t156.5 170q18 23 37 22q10 0 18.5 -9t8.5 -17q0 -12 -13 -31q-23 -33 -63.5 -82t-94 -104.5t-113.5 -111.5t-117.5 -100.5t-107.5 -72t-85 -27.5t-54.5 10.5t-30 26.5t-13.5 33.5t-3 34.5q0 47 23.5 104t46.5 121q6 18 16.5 42.5t18.5 48.5t14 43.5 t6 29.5v2q-37 0 -96 -45t-124.5 -111.5t-129 -143.5t-108.5 -143q-6 -6 -13.5 -11t-17.5 -5q-27 0 -43.5 19.5t-16.5 48.5q0 35 20.5 86t57.5 135q12 27 28.5 62.5t32 72.5t25.5 70.5t10 54.5q0 4 -1 10t-5 6q-53 0 -125.5 -55t-148.5 -138t-146.5 -178.5t-119.5 -175.5 q-8 -18 -29 -18q-20 0 -31.5 13.5t-11.5 27.5z" />
<glyph unicode="n" horiz-adv-x="905" d="M0 41q0 55 18.5 125t45 140.5t58.5 138t60.5 120.5t48 87t23.5 38q10 20 33 21q18 0 28.5 -12.5t10.5 -26.5q0 -16 -7 -23l-21 -39q-22 -39 -53.5 -99t-65.5 -135t-58 -149q47 63 107.5 137t126 136.5t132 103.5t125.5 41q27 0 42.5 -8t24.5 -20.5t12 -28t3 -29.5 q0 -45 -21.5 -103.5t-58.5 -138.5q-12 -27 -24 -62.5t-23.5 -70t-18.5 -63.5t-7 -41q12 0 44.5 9t94 49t154 124t223.5 236q14 23 37 22q10 0 18 -8t8 -16q0 -14 -4 -19.5t-8 -13.5q-55 -76 -130 -158t-155 -149.5t-154.5 -111.5t-127.5 -44q-27 0 -42.5 9t-23.5 21.5 t-11 28t-3 27.5q0 41 19.5 102.5t54.5 145.5q10 25 23 55.5t25.5 62t21.5 58.5t9 41q0 10 -2 14q-53 0 -125.5 -55t-148.5 -138t-146.5 -178.5t-119.5 -175.5q-8 -18 -31 -18q-18 0 -29.5 12.5t-11.5 28.5z" />
<glyph unicode="o" horiz-adv-x="638" d="M0 141q0 61 30.5 145.5t85 165t126 144t151.5 80.5h17q33 0 32 -35q0 -33 -32 -41q-63 -12 -123 -66.5t-106 -124t-73.5 -143t-27.5 -125.5q0 -41 22.5 -64.5t57.5 -23.5q33 0 85 33t102 92.5t86 145.5t36 190q0 14 11.5 26.5t27.5 12.5q12 0 23.5 -7t15.5 -22v-10 q0 -16 -2.5 -47t-14.5 -84q-23 -94 -66.5 -170t-98 -128t-109.5 -81t-98 -29q-78 0 -118 44t-40 122z" />
<glyph unicode="p" horiz-adv-x="768" d="M-346 -612q0 66 93 271.5t251 518.5q49 98 99 200.5t91 191.5t67 152.5t26 84.5q0 16 11 27.5t27 11.5q18 0 29.5 -11.5t11.5 -27.5q0 -29 -23.5 -91.5t-68.5 -156.5q59 55 112.5 89t106.5 34q39 0 65 -14.5t41 -37t21.5 -50t6.5 -54.5q0 -47 -19.5 -102t-52.5 -110.5 t-75 -105.5t-87 -87q57 18 124 47t135.5 74t138 108.5t135.5 147.5q8 10 18 16t14 6q12 0 21.5 -7t9.5 -24q0 -10 -12 -26q-106 -143 -224 -232.5t-228.5 -139.5t-205 -67.5t-153.5 -17.5q-53 0 -75 10.5t-22 36.5q0 33 29 39t51 6q82 0 155 49.5t126 118t85 141t32 119.5 q0 33 -12.5 54.5t-43.5 21.5t-72.5 -28.5t-87.5 -71.5t-91.5 -95.5t-79.5 -99.5q-39 -78 -85 -169t-92.5 -185t-90.5 -185.5t-77.5 -168t-54 -132t-20.5 -79.5q0 -18 -12.5 -29.5t-28.5 -11.5q-39 0 -39 41z" />
<glyph unicode="q" horiz-adv-x="755" d="M-41 131q0 61 27.5 128t72.5 131.5t100.5 121.5t110 100t103.5 69t80 26q16 0 28.5 -12.5t12.5 -28.5q0 -18 -12.5 -28.5t-28.5 -10.5q-31 0 -93.5 -43t-128 -112t-120 -154t-68.5 -166l-2 -21q0 -23 10 -40t29 -17q31 0 80 39t105.5 97t110.5 122.5t95 118.5 q12 16 33 16q20 0 29.5 -12.5t9.5 -28.5q0 -2 -42 -84t-128 -272q12 12 28 12q45 0 112 42t139.5 105.5t141 135t117.5 133.5q16 23 31 22q11 0 19 -8q12 -10 12 -18q0 -12 -7.5 -23.5t-9.5 -15.5q-12 -20 -66 -85t-129 -138.5t-160 -138t-159 -83.5q2 -23 3 -48t1 -52 q0 -82 -11 -174t-30.5 -183.5t-47 -173t-61.5 -145t-73 -101.5t-80 -38q-90 0 -90 162q0 102 24.5 216.5t63.5 231.5t88.5 232.5t98.5 220.5q-68 -68 -132.5 -116t-115.5 -48q-49 0 -85 39t-36 98zM131 -754q0 -59 12 -71q27 2 54.5 41t52 100t47 141t39 164t26 167t9.5 153 q0 29 -2.5 54t-6.5 48q-39 -86 -75.5 -177t-65.5 -177q-51 -154 -70.5 -265.5t-19.5 -177.5z" />
<glyph unicode="r" horiz-adv-x="659" d="M-47 6q0 6 16.5 49t42 107.5t57 141.5t61.5 147.5t54.5 129t36.5 85.5l6 10q15 26 37 26h2q14 0 25.5 -11t11.5 -27q0 -14 -2 -19q-35 -86 -73 -174t-78 -184q53 66 110 130t114.5 115.5t111 83t98.5 31.5q31 0 53 -15.5t35.5 -36t20.5 -38.5t7 -27q0 -16 -11 -28.5 t-30 -12.5q-18 0 -28 12.5t-18.5 27t-17.5 26.5t-26 12q-37 0 -105.5 -57t-147 -144t-156.5 -189.5t-131 -192.5q-6 -8 -15.5 -14.5t-19.5 -6.5q-16 0 -27.5 12.5t-13.5 30.5z" />
<glyph unicode="s" horiz-adv-x="630" d="M-92 10q0 23 10 34t25 11q27 0 37 -30q2 -10 13 -16.5t23.5 -9.5t25.5 -4t19 -1q37 0 74 9t65.5 33.5t46 66.5t17.5 108q0 31 -5 76t-11 88t-12.5 75.5t-8.5 41.5q-6 -6 -17 -21.5t-24.5 -32t-28 -34t-22.5 -25.5q-4 -4 -9 -7t-13 -3q-12 0 -21.5 7t-9.5 23q0 6 6 17 q16 27 54 70.5t65 82.5q4 53 16 95q10 35 31.5 65.5t58.5 30.5q23 0 34 -20.5t11 -45.5q0 -33 -19.5 -69.5t-41.5 -69.5q14 -66 25 -127q10 -53 17 -109.5t7 -97.5q0 -47 -9.5 -88t-21.5 -57q66 29 134.5 83t131 115.5t115 122t86.5 101.5q16 23 37 22q12 0 19.5 -9t7.5 -17 q0 -16 -12 -31q-84 -117 -183.5 -217.5t-202 -174t-203 -115.5t-186.5 -42q-20 0 -46.5 5t-49 15.5t-39 29t-16.5 46.5z" />
<glyph unicode="t" horiz-adv-x="481" d="M37 686q0 18 11 30.5t32 12.5q41 -2 89 -3t97 -1q37 72 70 133.5t60.5 107.5t49 71.5t33.5 25.5q18 0 30.5 -12.5t12.5 -28.5q0 -10 -8 -21q-39 -59 -78 -130.5t-80 -149.5q51 0 97.5 3t79 6t51 6t16.5 3q10 0 21.5 -5t15.5 -17q2 -6 2 -15q0 -35 -75 -48t-181 -13h-70 q-41 -80 -75.5 -159t-60 -150.5t-41 -134t-15.5 -107.5q0 -37 13 -58.5t14 -39.5q0 -16 -11.5 -27.5t-27.5 -11.5t-28.5 12t-21 32.5t-12.5 45.5t-4 47q0 55 15.5 122t40 138.5t57 147t67.5 147.5q-100 2 -143 3t-43 38z" />
<glyph unicode="u" horiz-adv-x="872" d="M16 131q0 61 22.5 132t57.5 140.5t77 131t83 102.5q12 12 29 12q16 0 28.5 -11t12.5 -28q0 -16 -15 -30q-33 -35 -70.5 -88.5t-69.5 -115t-53.5 -126t-21.5 -117.5q0 -39 8.5 -47t18.5 -8q25 0 57.5 19.5t69.5 52t77 74.5t79 85q88 102 186 234q12 16 31 16 q18 0 29.5 -10t11.5 -27q0 -6 -2.5 -11t-4.5 -11q-31 -59 -57.5 -120t-45.5 -115t-30.5 -97t-11.5 -68q0 -14 4 -22q45 0 108.5 38t133 97t139.5 135t129 150q18 23 33 22q12 0 21.5 -7t9.5 -24q0 -2 -2.5 -9t-10.5 -17q-16 -25 -51 -69t-81 -95t-100 -104.5t-111.5 -97.5 t-113 -71.5t-104.5 -27.5q-84 0 -84 100q0 35 10.5 77t26.5 85q-47 -53 -93 -101t-91 -84t-87 -56.5t-77 -20.5q-16 0 -34.5 5t-34 19.5t-26 41t-10.5 67.5z" />
<glyph unicode="v" horiz-adv-x="704" d="M72 135q0 74 16 156t36.5 151.5t40 117.5t25.5 56q14 18 33 19q14 0 25.5 -10.5t11.5 -26.5q0 -6 -16 -51q-10 -33 -25.5 -78t-30 -99.5t-23.5 -115.5t-9 -125q0 -41 9 -63.5t32 -22.5q47 0 108.5 64.5t120.5 158.5t110.5 200.5t79.5 190.5q4 10 15.5 23.5t27.5 13.5 t26.5 -12t10.5 -31q0 -2 -1 -4t-1 -4v-6q-4 -20 -26.5 -79.5t-59.5 -134.5t-86 -157t-104.5 -149.5t-115.5 -111.5t-118 -44q-61 0 -86.5 50t-25.5 124z" />
<glyph unicode="w" horiz-adv-x="972" d="M20 109q0 33 7.5 71.5t19.5 80.5t27.5 85t31.5 82q38 92 89 188q12 25 34 25q16 0 27.5 -12.5t11.5 -28.5q0 -6 -4 -18q-80 -160 -123 -285t-43 -188q0 -10 2 -19.5t6 -9.5q16 0 52.5 42t80.5 107.5t93 146.5t92 159q4 10 12 16t19 6q16 0 29.5 -11t13.5 -30 q0 -37 -5.5 -85t-5.5 -97q0 -45 4.5 -91t12.5 -84t22.5 -61.5t32.5 -23.5q37 0 78 50t79 134t65.5 194.5t35.5 231.5q2 14 14.5 21.5t24.5 7.5q35 0 35 -41v-4q-10 -139 -42 -262t-78 -214.5t-101.5 -144.5t-110.5 -53q-47 0 -76.5 32.5t-46 84t-22.5 114t-6 121.5 q-37 -63 -77 -124.5t-80 -111t-77 -80t-65 -30.5q-41 0 -65 28.5t-24 80.5z" />
<glyph unicode="x" horiz-adv-x="733" d="M-125 -174q12 47 46 108.5t84 130t112.5 140t130.5 143.5q-2 6 -2 14q-10 39 -20.5 82t-20.5 62q-10 20 -10 41q0 33 28 33q39 0 57.5 -45.5t32.5 -116.5q100 98 197.5 181t173.5 134q8 4 25 4q14 0 25 -9t11 -28q0 -23 -18 -34q-78 -53 -183.5 -143.5t-209.5 -200.5 q8 -37 17 -75t22.5 -67.5t30 -48t38.5 -18.5q31 0 84.5 35.5t117 92t127 124t116.5 133.5q10 12 16 17t21 5q26 0 26 -24q0 -18 -12 -33q-6 -8 -35 -44t-72 -83t-94 -100.5t-104 -98.5t-103.5 -74.5t-87.5 -29.5q-39 0 -66.5 18.5t-49 49t-36 70.5t-24.5 83 q-57 -63 -109.5 -125.5t-94.5 -121t-70.5 -111t-36.5 -91.5q-10 -28 -39 -28h-2q-16 0 -27.5 12t-11.5 31v6z" />
<glyph unicode="y" horiz-adv-x="905" d="M-129 -768q0 70 43 147.5t125 170t198.5 202t264.5 244.5q12 39 27.5 95t29.5 114.5t25.5 110.5t15.5 83q-47 -61 -104.5 -130.5t-118 -130t-118.5 -100.5t-107 -40q-14 0 -36 5t-41.5 20.5t-32.5 45t-13 81.5q0 59 19.5 126.5t53 135t78.5 130t96 113.5q12 12 27 13 q16 0 29.5 -11.5t13.5 -27.5t-12 -29q-45 -47 -86 -103.5t-72 -117t-49 -120.5t-18 -112q0 -31 10 -50t35 -19q33 0 80 36t99 89t103 115.5t92 115.5t66 88l24 35q14 18 35 18q16 0 26.5 -13t10.5 -30q0 -29 -7 -85t-18.5 -121.5t-25.5 -131t-31 -112.5q23 14 79 58 t123 104.5t133.5 128t113.5 127.5q16 23 37 22q12 0 19 -9t7 -17q0 -10 -5 -18.5t-7 -12.5q-31 -47 -86 -111.5t-128 -136.5t-157 -144.5t-170 -135.5q-47 -154 -108.5 -302.5t-135 -265.5t-157.5 -188.5t-172 -71.5q-53 0 -88 34t-35 89zM-49 -768q0 -12 3 -19.5t5 -9.5 q8 -14 35 -14q61 0 123.5 55.5t123 147.5t114 208.5t96.5 239.5q-80 -74 -155 -143.5t-136.5 -132t-105.5 -115.5t-64 -96q-23 -45 -31 -74t-8 -47z" />
<glyph unicode="z" horiz-adv-x="741" d="M-311 -739q0 68 49 140.5t135 158.5t206 190.5t261 233.5q-29 31 -76 40t-84 9q-35 0 -74.5 -7.5t-44.5 -7.5q-16 0 -28.5 10.5t-12.5 26.5q0 27 25 39q12 8 50 24.5t87 41t102.5 57.5t98.5 74t73.5 90t28.5 106q0 33 -9 51.5t-23.5 26.5t-28.5 10.5t-27 2.5 q-37 0 -77.5 -13.5t-63.5 -17.5q-8 -4 -23 -4q-16 0 -28 8t-12 27q0 27 38 43q6 2 24.5 8t41 12t47.5 11t47 5q20 0 50 -4t57.5 -21.5t47 -51t19.5 -93.5q0 -102 -78.5 -192t-236.5 -189q39 -6 79.5 -22t69.5 -47q23 14 87.5 68.5t141.5 125t150.5 143t114.5 124.5 q20 25 37 24q12 0 20 -9t8 -17q0 -10 -5 -18.5t-11 -18.5q-23 -31 -67 -81t-107 -113.5t-144 -137.5t-173 -152q45 -84 45 -198q0 -74 -30 -151t-79 -150.5t-114.5 -140t-137.5 -116.5t-144.5 -79t-137.5 -29q-72 0 -118 40t-46 110zM-231 -739q0 -15 4 -31q23 -39 75 -39 q72 0 170.5 50t186.5 133t149.5 188.5t61.5 214.5q0 84 -27 143q-127 -115 -239.5 -215t-196.5 -183t-134 -148.5t-50 -112.5z" />
<glyph unicode="{" horiz-adv-x="888" d="M80 -18q0 78 43 155.5t94 156.5t94 155.5t43 150.5q0 86 -82 162q-14 14 -14 29q0 16 11.5 26t25.5 14q303 41 352 332q14 92 37 163t65 122t107.5 85t165.5 54q23 4 44 6t42 2q39 0 62.5 -2t35 -7t14.5 -14t3 -22q0 -16 -10.5 -27.5t-26.5 -11.5h-21.5h-44t-48 -1 t-34.5 -3q-84 -16 -137 -41.5t-88 -67.5t-54.5 -101.5t-33.5 -143.5q-51 -311 -350 -389q59 -74 59 -164q0 -82 -43 -164t-94 -160.5t-94 -152.5t-43 -139q0 -47 25.5 -82t58 -60.5t59.5 -40t31 -16.5q20 -10 20 -35q0 -20 -12 -30.5t-29 -10.5q-10 0 -14 4q-6 2 -41 21.5 t-75 54.5t-71.5 83t-31.5 110z" />
<glyph unicode="|" horiz-adv-x="481" d="M201 -504v2396h82v-2396h-82z" />
<glyph unicode="}" horiz-adv-x="1044" d="M-205 -246q0 16 10.5 27.5t26.5 11.5h20h44.5t49 1t34.5 3q82 16 136 42t89 68t54.5 101.5t33.5 143.5q51 311 348 389q-57 76 -57 166q0 82 43 162.5t94 159.5t94 152.5t43 139.5q0 45 -25.5 81t-58.5 61.5t-60.5 39t-29.5 17.5q-20 10 -20 34q0 20 12 30.5t26 10.5 q12 0 17 -4q6 -2 41 -21.5t74.5 -54t71.5 -83t32 -109.5q0 -78 -43 -155.5t-94 -155.5t-94 -155t-43 -150q0 -88 81 -164q14 -14 15 -29q0 -16 -11.5 -26.5t-27.5 -14.5q-150 -20 -239 -102t-111 -230q-16 -92 -39 -162.5t-64 -122t-106.5 -85.5t-165.5 -54q-23 -4 -44.5 -6 t-41.5 -2q-41 0 -63.5 2t-34 7.5t-14.5 14.5t-3 21z" />
<glyph unicode="~" horiz-adv-x="1363" d="M266 1018q0 16 10 29q45 53 102.5 94t129.5 41q61 0 116.5 -31t107.5 -67.5t105.5 -67.5t108.5 -31q29 0 56.5 13.5t52 35t44 48t29.5 55.5q6 14 16.5 18t18.5 4q14 0 27.5 -11t13.5 -30l-4 -12q-14 -41 -39.5 -77t-60.5 -62.5t-77 -43t-85 -16.5q-63 0 -121.5 31 t-113 66.5t-104.5 66.5t-99 31q-25 0 -48.5 -11.5t-45 -27.5t-39 -35t-31.5 -35q-14 -14 -33 -14q-16 0 -26.5 11t-10.5 28z" />
<glyph unicode="&#xad;" d="M266 291q0 20 21 35q2 0 25.5 10t70.5 25.5t118.5 33t170.5 31.5q66 10 118 16.5t121 12.5q39 0 45 -35q0 -16 -8 -28.5t-26 -16.5q-88 -10 -165 -20.5t-143 -20.5q-135 -23 -209.5 -50.5t-78.5 -29.5q-6 -4 -17 -4q-14 0 -28.5 11t-14.5 30z" />
<glyph unicode="&#x2000;" horiz-adv-x="946" />
<glyph unicode="&#x2001;" horiz-adv-x="1892" />
<glyph unicode="&#x2002;" horiz-adv-x="946" />
<glyph unicode="&#x2003;" horiz-adv-x="1892" />
<glyph unicode="&#x2004;" horiz-adv-x="630" />
<glyph unicode="&#x2005;" horiz-adv-x="473" />
<glyph unicode="&#x2006;" horiz-adv-x="315" />
<glyph unicode="&#x2007;" horiz-adv-x="315" />
<glyph unicode="&#x2008;" horiz-adv-x="236" />
<glyph unicode="&#x2009;" horiz-adv-x="378" />
<glyph unicode="&#x200a;" horiz-adv-x="105" />
<glyph unicode="&#x2010;" d="M266 291q0 20 21 35q2 0 25.5 10t70.5 25.5t118.5 33t170.5 31.5q66 10 118 16.5t121 12.5q39 0 45 -35q0 -16 -8 -28.5t-26 -16.5q-88 -10 -165 -20.5t-143 -20.5q-135 -23 -209.5 -50.5t-78.5 -29.5q-6 -4 -17 -4q-14 0 -28.5 11t-14.5 30z" />
<glyph unicode="&#x2011;" d="M266 291q0 20 21 35q2 0 25.5 10t70.5 25.5t118.5 33t170.5 31.5q66 10 118 16.5t121 12.5q39 0 45 -35q0 -16 -8 -28.5t-26 -16.5q-88 -10 -165 -20.5t-143 -20.5q-135 -23 -209.5 -50.5t-78.5 -29.5q-6 -4 -17 -4q-14 0 -28.5 11t-14.5 30z" />
<glyph unicode="&#x2012;" d="M266 291q0 20 21 35q2 0 25.5 10t70.5 25.5t118.5 33t170.5 31.5q66 10 118 16.5t121 12.5q39 0 45 -35q0 -16 -8 -28.5t-26 -16.5q-88 -10 -165 -20.5t-143 -20.5q-135 -23 -209.5 -50.5t-78.5 -29.5q-6 -4 -17 -4q-14 0 -28.5 11t-14.5 30z" />
<glyph unicode="&#x2013;" horiz-adv-x="1419" d="M266 291q0 20 21 35q2 0 53 14t132 32.5t180.5 39t197.5 34.5q33 6 79 13.5t96 14.5t99.5 13.5t89.5 10.5q18 0 30.5 -8.5t15.5 -26.5q0 -16 -8.5 -29.5t-26.5 -15.5q-43 -4 -104.5 -13.5t-123 -18.5t-116.5 -18.5t-88 -13.5q-68 -10 -141.5 -25.5t-136 -29.5 t-105.5 -25.5t-50 -13.5q-6 -2 -26.5 -6t-24.5 -4q-14 0 -28.5 11t-14.5 30z" />
<glyph unicode="&#x2014;" horiz-adv-x="1783" d="M266 291q0 20 21 35q2 0 71.5 18t173 42t225.5 49.5t228 41.5q33 4 114 16.5t174 27t178 24.5t128 12q18 0 30.5 -8t14.5 -27q0 -16 -8 -29.5t-27 -15.5q-29 -4 -80 -11t-112.5 -15.5t-127 -18.5t-125 -18t-105.5 -15.5t-66 -9.5q-45 -8 -108.5 -19.5t-131 -25.5 t-135.5 -28.5t-122 -27t-90 -20.5t-40 -10t-18.5 -5t-18.5 -3q-14 0 -28.5 11t-14.5 30z" />
<glyph unicode="&#x2018;" horiz-adv-x="520" d="M266 893q0 55 31 102t71 83t77.5 55.5t52.5 19.5q23 0 22 -16q0 -8 -21.5 -23.5t-48 -40t-48 -60.5t-21.5 -81v-10.5t2 -42.5q0 -29 -14 -51.5t-43 -22.5t-44.5 19.5t-15.5 68.5z" />
<glyph unicode="&#x2019;" horiz-adv-x="733" d="M399 819q0 8 21.5 24.5t48.5 41t48.5 59.5t21.5 82v10t-4 43q0 29 14 51.5t45 22.5q29 0 44 -20.5t15 -67.5q0 -55 -30.5 -103.5t-70.5 -83t-79 -54t-53 -19.5t-17.5 5t-3.5 9z" />
<glyph unicode="&#x201c;" horiz-adv-x="745" d="M266 893q0 55 31 102t71 83t77.5 55.5t52.5 19.5q23 0 22 -16q0 -8 -21.5 -23.5t-48 -40t-48 -60.5t-21.5 -81v-10.5t2 -42.5q0 -29 -14 -51.5t-43 -22.5t-44.5 19.5t-15.5 68.5zM494 893q0 55 30.5 102t69.5 83t77 55.5t54 19.5q14 0 17 -5t3 -11q0 -8 -21.5 -23.5 t-48 -40t-48 -60.5t-21.5 -81v-10.5t4 -42.5q0 -29 -14 -51.5t-45 -22.5q-29 0 -43 19.5t-14 68.5z" />
<glyph unicode="&#x201d;" horiz-adv-x="958" d="M399 819q0 8 21.5 24.5t48.5 41t48.5 59.5t21.5 82v10t-4 43q0 29 14 51.5t45 22.5q29 0 44 -20.5t15 -67.5q0 -55 -30.5 -103.5t-70.5 -83t-79 -54t-53 -19.5t-17.5 5t-3.5 9zM627 819q0 8 21.5 24.5t47 41t47 59.5t21.5 82v10t-2 43q0 29 14 51.5t43 22.5t44.5 -20.5 t15.5 -67.5q0 -55 -31 -103.5t-71 -83t-77.5 -54t-52.5 -19.5q-14 0 -17 5t-3 9z" />
<glyph unicode="&#x202f;" horiz-adv-x="378" />
<glyph unicode="&#x205f;" horiz-adv-x="473" />
</font>
</defs>
</svg>
